<?xml version="1.0" encoding="us-ascii" standalone="no"?><svg xmlns="http://www.w3.org/2000/svg" xmlns:xlink="http://www.w3.org/1999/xlink" contentStyleType="text/css" height="928px" preserveAspectRatio="none" style="width:1970px;height:928px;background:#FFFFFF;" version="1.1" viewBox="0 0 1970 928" width="1970px" zoomAndPan="magnify"><defs/><g><!--cluster Header Files--><g id="cluster_Header Files"><path d="M8.5,6 L107.5,6 A3.75,3.75 0 0 1 110,8.5 L117,28.2969 L1960.5,28.2969 A2.5,2.5 0 0 1 1963,30.7969 L1963,919 A2.5,2.5 0 0 1 1960.5,921.5 L8.5,921.5 A2.5,2.5 0 0 1 6,919 L6,8.5 A2.5,2.5 0 0 1 8.5,6 " fill="none" style="stroke:#000000;stroke-width:1.5;"/><line style="stroke:#000000;stroke-width:1.5;" x1="6" x2="117" y1="28.2969" y2="28.2969"/><text fill="#000000" font-family="sans-serif" font-size="14" font-weight="bold" lengthAdjust="spacing" textLength="98" x="10" y="20.9951">Header Files</text></g><!--cluster Spell Related--><g id="cluster_Spell Related"><path d="M473.5,396.45 L576.5,396.45 A3.75,3.75 0 0 1 579,398.95 L586,418.7469 L1374.5,418.7469 A2.5,2.5 0 0 1 1377,421.2469 L1377,895 A2.5,2.5 0 0 1 1374.5,897.5 L473.5,897.5 A2.5,2.5 0 0 1 471,895 L471,398.95 A2.5,2.5 0 0 1 473.5,396.45 " fill="#ADD8E6" style="stroke:#000000;stroke-width:1.5;"/><line style="stroke:#000000;stroke-width:1.5;" x1="471" x2="586" y1="418.7469" y2="418.7469"/><text fill="#000000" font-family="sans-serif" font-size="14" font-weight="bold" lengthAdjust="spacing" textLength="102" x="475" y="411.4451">Spell Related</text></g><!--cluster Target Related--><g id="cluster_Target Related"><path d="M1403.5,54.89 L1520.5,54.89 A3.75,3.75 0 0 1 1523,57.39 L1530,77.1869 L1936.5,77.1869 A2.5,2.5 0 0 1 1939,79.6869 L1939,631.48 A2.5,2.5 0 0 1 1936.5,633.98 L1403.5,633.98 A2.5,2.5 0 0 1 1401,631.48 L1401,57.39 A2.5,2.5 0 0 1 1403.5,54.89 " fill="#FFFFE0" style="stroke:#000000;stroke-width:1.5;"/><line style="stroke:#000000;stroke-width:1.5;" x1="1401" x2="1530" y1="77.1869" y2="77.1869"/><text fill="#000000" font-family="sans-serif" font-size="14" font-weight="bold" lengthAdjust="spacing" textLength="116" x="1405" y="69.8851">Target Related</text></g><!--class Warlock--><g id="elem_Warlock"><rect codeLine="89" fill="#F1F1F1" height="292.4531" id="Warlock" rx="2.5" ry="2.5" style="stroke:#181818;stroke-width:0.5;" width="286" x="393" y="41"/><ellipse cx="504.75" cy="57" fill="#ADD1B2" rx="11" ry="11" style="stroke:#181818;stroke-width:1.0;"/><path d="M507.7188,62.6406 Q507.1406,62.9375 506.5,63.0781 Q505.8594,63.2344 505.1563,63.2344 Q502.6563,63.2344 501.3281,61.5938 Q500.0156,59.9375 500.0156,56.8125 Q500.0156,53.6875 501.3281,52.0313 Q502.6563,50.375 505.1563,50.375 Q505.8594,50.375 506.5,50.5313 Q507.1563,50.6875 507.7188,50.9844 L507.7188,53.7031 Q507.0938,53.125 506.5,52.8594 Q505.9063,52.5781 505.2813,52.5781 Q503.9375,52.5781 503.25,53.6563 Q502.5625,54.7188 502.5625,56.8125 Q502.5625,58.9063 503.25,59.9844 Q503.9375,61.0469 505.2813,61.0469 Q505.9063,61.0469 506.5,60.7813 Q507.0938,60.5 507.7188,59.9219 L507.7188,62.6406 Z " fill="#000000"/><text fill="#000000" font-family="sans-serif" font-size="14" lengthAdjust="spacing" textLength="54" x="525.25" y="61.8467">Warlock</text><line style="stroke:#181818;stroke-width:0.5;" x1="394" x2="678" y1="73" y2="73"/><rect fill="none" height="6" style="stroke:#C82930;stroke-width:1.0;" width="6" x="401" y="83.6484"/><text fill="#000000" font-family="sans-serif" font-size="14" lengthAdjust="spacing" textLength="98" x="413" y="89.9951">_name : string</text><rect fill="none" height="6" style="stroke:#C82930;stroke-width:1.0;" width="6" x="401" y="99.9453"/><text fill="#000000" font-family="sans-serif" font-size="14" lengthAdjust="spacing" textLength="84" x="413" y="106.292">_title : string</text><rect fill="none" height="6" style="stroke:#C82930;stroke-width:1.0;" width="6" x="401" y="116.2422"/><text fill="#000000" font-family="sans-serif" font-size="14" lengthAdjust="spacing" textLength="124" x="413" y="122.5889">_book : SpellBook</text><line style="stroke:#181818;stroke-width:0.5;" x1="394" x2="678" y1="129.8906" y2="129.8906"/><ellipse cx="404" cy="143.5391" fill="#84BE84" rx="3" ry="3" style="stroke:#038048;stroke-width:1.0;"/><text fill="#000000" font-family="sans-serif" font-size="14" lengthAdjust="spacing" textLength="260" x="413" y="146.8857">Warlock(string const&amp;, string const&amp;)</text><rect fill="#F24D5C" height="6" style="stroke:#C82930;stroke-width:1.0;" width="6" x="401" y="156.8359"/><text fill="#000000" font-family="sans-serif" font-size="14" lengthAdjust="spacing" textLength="64" x="413" y="163.1826">Warlock()</text><rect fill="#F24D5C" height="6" style="stroke:#C82930;stroke-width:1.0;" width="6" x="401" y="173.1328"/><text fill="#000000" font-family="sans-serif" font-size="14" lengthAdjust="spacing" textLength="173" x="413" y="179.4795">Warlock(const Warlock&amp;)</text><rect fill="#F24D5C" height="6" style="stroke:#C82930;stroke-width:1.0;" width="6" x="401" y="189.4297"/><text fill="#000000" font-family="sans-serif" font-size="14" lengthAdjust="spacing" textLength="190" x="413" y="195.7764">operator=(const Warlock&amp;)</text><ellipse cx="404" cy="208.7266" fill="#84BE84" rx="3" ry="3" style="stroke:#038048;stroke-width:1.0;"/><text fill="#000000" font-family="sans-serif" font-size="14" lengthAdjust="spacing" textLength="120" x="413" y="212.0732">virtual ~Warlock()</text><ellipse cx="404" cy="225.0234" fill="#84BE84" rx="3" ry="3" style="stroke:#038048;stroke-width:1.0;"/><text fill="#000000" font-family="sans-serif" font-size="14" lengthAdjust="spacing" textLength="223" x="413" y="228.3701">getName() const : const string&amp;</text><ellipse cx="404" cy="241.3203" fill="#84BE84" rx="3" ry="3" style="stroke:#038048;stroke-width:1.0;"/><text fill="#000000" font-family="sans-serif" font-size="14" lengthAdjust="spacing" textLength="212" x="413" y="244.667">getTitle() const : const string&amp;</text><ellipse cx="404" cy="257.6172" fill="#84BE84" rx="3" ry="3" style="stroke:#038048;stroke-width:1.0;"/><text fill="#000000" font-family="sans-serif" font-size="14" lengthAdjust="spacing" textLength="155" x="413" y="260.9639">setTitle(string const&amp;)</text><ellipse cx="404" cy="273.9141" fill="#84BE84" rx="3" ry="3" style="stroke:#038048;stroke-width:1.0;"/><text fill="#000000" font-family="sans-serif" font-size="14" lengthAdjust="spacing" textLength="119" x="413" y="277.2607">introduce() const</text><ellipse cx="404" cy="290.2109" fill="#84BE84" rx="3" ry="3" style="stroke:#038048;stroke-width:1.0;"/><text fill="#000000" font-family="sans-serif" font-size="14" lengthAdjust="spacing" textLength="126" x="413" y="293.5576">learnSpell(ASpell*)</text><ellipse cx="404" cy="306.5078" fill="#84BE84" rx="3" ry="3" style="stroke:#038048;stroke-width:1.0;"/><text fill="#000000" font-family="sans-serif" font-size="14" lengthAdjust="spacing" textLength="123" x="413" y="309.8545">forgetSpell(string)</text><ellipse cx="404" cy="322.8047" fill="#84BE84" rx="3" ry="3" style="stroke:#038048;stroke-width:1.0;"/><text fill="#000000" font-family="sans-serif" font-size="14" lengthAdjust="spacing" textLength="245" x="413" y="326.1514">launchSpell(string, const ATarget&amp;)</text></g><!--class SpellBook--><g id="elem_SpellBook"><rect codeLine="107" fill="#F1F1F1" height="178.375" id="SpellBook" rx="2.5" ry="2.5" style="stroke:#181818;stroke-width:0.5;" width="312" x="143" y="455.9"/><ellipse cx="260.25" cy="471.9" fill="#ADD1B2" rx="11" ry="11" style="stroke:#181818;stroke-width:1.0;"/><path d="M263.2188,477.5406 Q262.6406,477.8375 262,477.9781 Q261.3594,478.1344 260.6563,478.1344 Q258.1563,478.1344 256.8281,476.4938 Q255.5156,474.8375 255.5156,471.7125 Q255.5156,468.5875 256.8281,466.9313 Q258.1563,465.275 260.6563,465.275 Q261.3594,465.275 262,465.4313 Q262.6563,465.5875 263.2188,465.8844 L263.2188,468.6031 Q262.5938,468.025 262,467.7594 Q261.4063,467.4781 260.7813,467.4781 Q259.4375,467.4781 258.75,468.5563 Q258.0625,469.6188 258.0625,471.7125 Q258.0625,473.8063 258.75,474.8844 Q259.4375,475.9469 260.7813,475.9469 Q261.4063,475.9469 262,475.6813 Q262.5938,475.4 263.2188,474.8219 L263.2188,477.5406 Z " fill="#000000"/><text fill="#000000" font-family="sans-serif" font-size="14" lengthAdjust="spacing" textLength="69" x="280.75" y="476.7467">SpellBook</text><line style="stroke:#181818;stroke-width:0.5;" x1="144" x2="454" y1="487.9" y2="487.9"/><rect fill="none" height="6" style="stroke:#C82930;stroke-width:1.0;" width="6" x="151" y="498.5484"/><text fill="#000000" font-family="sans-serif" font-size="14" lengthAdjust="spacing" textLength="155" x="163" y="504.8951">_list : vector&lt;ASpell*&gt;</text><line style="stroke:#181818;stroke-width:0.5;" x1="144" x2="454" y1="512.1969" y2="512.1969"/><ellipse cx="154" cy="525.8453" fill="#84BE84" rx="3" ry="3" style="stroke:#038048;stroke-width:1.0;"/><text fill="#000000" font-family="sans-serif" font-size="14" lengthAdjust="spacing" textLength="79" x="163" y="529.192">SpellBook()</text><rect fill="#F24D5C" height="6" style="stroke:#C82930;stroke-width:1.0;" width="6" x="151" y="539.1422"/><text fill="#000000" font-family="sans-serif" font-size="14" lengthAdjust="spacing" textLength="203" x="163" y="545.4889">SpellBook(const SpellBook&amp;)</text><rect fill="#F24D5C" height="6" style="stroke:#C82930;stroke-width:1.0;" width="6" x="151" y="555.4391"/><text fill="#000000" font-family="sans-serif" font-size="14" lengthAdjust="spacing" textLength="205" x="163" y="561.7857">operator=(const SpellBook&amp;)</text><ellipse cx="154" cy="574.7359" fill="#84BE84" rx="3" ry="3" style="stroke:#038048;stroke-width:1.0;"/><text fill="#000000" font-family="sans-serif" font-size="14" lengthAdjust="spacing" textLength="91" x="163" y="578.0826">~SpellBook()</text><ellipse cx="154" cy="591.0328" fill="#84BE84" rx="3" ry="3" style="stroke:#038048;stroke-width:1.0;"/><text fill="#000000" font-family="sans-serif" font-size="14" lengthAdjust="spacing" textLength="126" x="163" y="594.3795">learnSpell(ASpell*)</text><ellipse cx="154" cy="607.3297" fill="#84BE84" rx="3" ry="3" style="stroke:#038048;stroke-width:1.0;"/><text fill="#000000" font-family="sans-serif" font-size="14" lengthAdjust="spacing" textLength="221" x="163" y="610.6764">forgetSpell(const string&amp; name)</text><ellipse cx="154" cy="623.6266" fill="#84BE84" rx="3" ry="3" style="stroke:#038048;stroke-width:1.0;"/><text fill="#000000" font-family="sans-serif" font-size="14" lengthAdjust="spacing" textLength="286" x="163" y="626.9732">createSpell(const string&amp; name) : ASpell*</text></g><!--class TargetGenerator--><g id="elem_TargetGenerator"><rect codeLine="118" fill="#F1F1F1" height="178.375" id="TargetGenerator" rx="2.5" ry="2.5" style="stroke:#181818;stroke-width:0.5;" width="336" x="22" y="98.04"/><ellipse cx="128.25" cy="114.04" fill="#ADD1B2" rx="11" ry="11" style="stroke:#181818;stroke-width:1.0;"/><path d="M131.2188,119.6806 Q130.6406,119.9775 130,120.1181 Q129.3594,120.2744 128.6563,120.2744 Q126.1563,120.2744 124.8281,118.6337 Q123.5156,116.9775 123.5156,113.8525 Q123.5156,110.7275 124.8281,109.0712 Q126.1563,107.415 128.6563,107.415 Q129.3594,107.415 130,107.5712 Q130.6563,107.7275 131.2188,108.0244 L131.2188,110.7431 Q130.5938,110.165 130,109.8994 Q129.4063,109.6181 128.7813,109.6181 Q127.4375,109.6181 126.75,110.6962 Q126.0625,111.7587 126.0625,113.8525 Q126.0625,115.9462 126.75,117.0244 Q127.4375,118.0869 128.7813,118.0869 Q129.4063,118.0869 130,117.8212 Q130.5938,117.54 131.2188,116.9619 L131.2188,119.6806 Z " fill="#000000"/><text fill="#000000" font-family="sans-serif" font-size="14" lengthAdjust="spacing" textLength="115" x="148.75" y="118.8867">TargetGenerator</text><line style="stroke:#181818;stroke-width:0.5;" x1="23" x2="357" y1="130.04" y2="130.04"/><rect fill="none" height="6" style="stroke:#C82930;stroke-width:1.0;" width="6" x="30" y="140.6884"/><text fill="#000000" font-family="sans-serif" font-size="14" lengthAdjust="spacing" textLength="167" x="42" y="147.0351">_list : vector&lt;ATarget*&gt;</text><line style="stroke:#181818;stroke-width:0.5;" x1="23" x2="357" y1="154.3369" y2="154.3369"/><ellipse cx="33" cy="167.9853" fill="#84BE84" rx="3" ry="3" style="stroke:#038048;stroke-width:1.0;"/><text fill="#000000" font-family="sans-serif" font-size="14" lengthAdjust="spacing" textLength="125" x="42" y="171.332">TargetGenerator()</text><rect fill="#F24D5C" height="6" style="stroke:#C82930;stroke-width:1.0;" width="6" x="30" y="181.2822"/><text fill="#000000" font-family="sans-serif" font-size="14" lengthAdjust="spacing" textLength="295" x="42" y="187.6289">TargetGenerator(const TargetGenerator&amp;)</text><rect fill="#F24D5C" height="6" style="stroke:#C82930;stroke-width:1.0;" width="6" x="30" y="197.5791"/><text fill="#000000" font-family="sans-serif" font-size="14" lengthAdjust="spacing" textLength="251" x="42" y="203.9257">operator=(const TargetGenerator&amp;)</text><ellipse cx="33" cy="216.8759" fill="#84BE84" rx="3" ry="3" style="stroke:#038048;stroke-width:1.0;"/><text fill="#000000" font-family="sans-serif" font-size="14" lengthAdjust="spacing" textLength="137" x="42" y="220.2226">~TargetGenerator()</text><ellipse cx="33" cy="233.1728" fill="#84BE84" rx="3" ry="3" style="stroke:#038048;stroke-width:1.0;"/><text fill="#000000" font-family="sans-serif" font-size="14" lengthAdjust="spacing" textLength="184" x="42" y="236.5195">learnTargetType(ATarget*)</text><ellipse cx="33" cy="249.4697" fill="#84BE84" rx="3" ry="3" style="stroke:#038048;stroke-width:1.0;"/><text fill="#000000" font-family="sans-serif" font-size="14" lengthAdjust="spacing" textLength="267" x="42" y="252.8164">forgetTargetType(const string&amp; name)</text><ellipse cx="33" cy="265.7666" fill="#84BE84" rx="3" ry="3" style="stroke:#038048;stroke-width:1.0;"/><text fill="#000000" font-family="sans-serif" font-size="14" lengthAdjust="spacing" textLength="310" x="42" y="269.1132">createTarget(const string&amp; name) : ATarget*</text></g><!--class ATarget--><g id="elem_ATarget"><rect fill="#F1F1F1" height="48" id="ATarget" rx="2.5" ry="2.5" style="stroke:#181818;stroke-width:0.5;" width="86" x="22" y="521.09"/><ellipse cx="37" cy="537.09" fill="#ADD1B2" rx="11" ry="11" style="stroke:#181818;stroke-width:1.0;"/><path d="M39.9688,542.7306 Q39.3906,543.0275 38.75,543.1681 Q38.1094,543.3244 37.4063,543.3244 Q34.9063,543.3244 33.5781,541.6837 Q32.2656,540.0275 32.2656,536.9025 Q32.2656,533.7775 33.5781,532.1212 Q34.9063,530.465 37.4063,530.465 Q38.1094,530.465 38.75,530.6212 Q39.4063,530.7775 39.9688,531.0744 L39.9688,533.7931 Q39.3438,533.215 38.75,532.9494 Q38.1563,532.6681 37.5313,532.6681 Q36.1875,532.6681 35.5,533.7462 Q34.8125,534.8087 34.8125,536.9025 Q34.8125,538.9962 35.5,540.0744 Q36.1875,541.1369 37.5313,541.1369 Q38.1563,541.1369 38.75,540.8712 Q39.3438,540.59 39.9688,540.0119 L39.9688,542.7306 Z " fill="#000000"/><text fill="#000000" font-family="sans-serif" font-size="14" lengthAdjust="spacing" textLength="54" x="51" y="541.9367">ATarget</text><line style="stroke:#181818;stroke-width:0.5;" x1="23" x2="107" y1="553.09" y2="553.09"/><line style="stroke:#181818;stroke-width:0.5;" x1="23" x2="107" y1="561.09" y2="561.09"/></g><!--class ASpell--><g id="elem_ASpell"><rect codeLine="5" fill="#F1F1F1" height="227.2656" id="ASpell" rx="2.5" ry="2.5" style="stroke:#181818;stroke-width:0.5;" width="279" x="989.5" y="431.45"/><ellipse cx="1103.75" cy="447.45" fill="#ADD8E6" rx="11" ry="11" style="stroke:#181818;stroke-width:1.0;"/><path d="M1103.8594,442.7938 L1102.7031,447.8719 L1105.0313,447.8719 L1103.8594,442.7938 Z M1102.375,440.5594 L1105.3594,440.5594 L1108.7188,452.95 L1106.2656,452.95 L1105.5,449.8875 L1102.2188,449.8875 L1101.4688,452.95 L1099.0313,452.95 L1102.375,440.5594 Z " fill="#000000"/><text fill="#000000" font-family="sans-serif" font-size="14" lengthAdjust="spacing" textLength="42" x="1124.25" y="452.2967">ASpell</text><line style="stroke:#181818;stroke-width:0.5;" x1="990.5" x2="1267.5" y1="463.45" y2="463.45"/><rect fill="none" height="6" style="stroke:#C82930;stroke-width:1.0;" width="6" x="997.5" y="474.0984"/><text fill="#000000" font-family="sans-serif" font-size="14" lengthAdjust="spacing" textLength="98" x="1009.5" y="480.4451">_name : string</text><rect fill="none" height="6" style="stroke:#C82930;stroke-width:1.0;" width="6" x="997.5" y="490.3953"/><text fill="#000000" font-family="sans-serif" font-size="14" lengthAdjust="spacing" textLength="106" x="1009.5" y="496.742">_effects : string</text><line style="stroke:#181818;stroke-width:0.5;" x1="990.5" x2="1267.5" y1="504.0438" y2="504.0438"/><ellipse cx="1000.5" cy="517.6922" fill="#84BE84" rx="3" ry="3" style="stroke:#038048;stroke-width:1.0;"/><text fill="#000000" font-family="sans-serif" font-size="14" lengthAdjust="spacing" textLength="52" x="1009.5" y="521.0389">ASpell()</text><ellipse cx="1000.5" cy="533.9891" fill="#84BE84" rx="3" ry="3" style="stroke:#038048;stroke-width:1.0;"/><text fill="#000000" font-family="sans-serif" font-size="14" lengthAdjust="spacing" textLength="138" x="1009.5" y="537.3357">ASpell(string, string)</text><ellipse cx="1000.5" cy="550.2859" fill="#84BE84" rx="3" ry="3" style="stroke:#038048;stroke-width:1.0;"/><text fill="#000000" font-family="sans-serif" font-size="14" lengthAdjust="spacing" textLength="149" x="1009.5" y="553.6326">ASpell(const ASpell&amp;)</text><ellipse cx="1000.5" cy="566.5828" fill="#84BE84" rx="3" ry="3" style="stroke:#038048;stroke-width:1.0;"/><text fill="#000000" font-family="sans-serif" font-size="14" lengthAdjust="spacing" textLength="178" x="1009.5" y="569.9295">operator=(const ASpell&amp;)</text><ellipse cx="1000.5" cy="582.8797" fill="#84BE84" rx="3" ry="3" style="stroke:#038048;stroke-width:1.0;"/><text fill="#000000" font-family="sans-serif" font-size="14" lengthAdjust="spacing" textLength="108" x="1009.5" y="586.2264">virtual ~ASpell()</text><ellipse cx="1000.5" cy="599.1766" fill="#84BE84" rx="3" ry="3" style="stroke:#038048;stroke-width:1.0;"/><text fill="#000000" font-family="sans-serif" font-size="14" lengthAdjust="spacing" textLength="168" x="1009.5" y="602.5232">getName() const : string</text><ellipse cx="1000.5" cy="615.4734" fill="#84BE84" rx="3" ry="3" style="stroke:#038048;stroke-width:1.0;"/><text fill="#000000" font-family="sans-serif" font-size="14" lengthAdjust="spacing" textLength="175" x="1009.5" y="618.8201">getEffects() const : string</text><ellipse cx="1000.5" cy="631.7703" fill="#84BE84" rx="3" ry="3" style="stroke:#038048;stroke-width:1.0;"/><text fill="#000000" font-family="sans-serif" font-size="14" lengthAdjust="spacing" textLength="226" x="1009.5" y="635.117">virtual clone() const : ASpell* = 0</text><ellipse cx="1000.5" cy="648.0672" fill="#84BE84" rx="3" ry="3" style="stroke:#038048;stroke-width:1.0;"/><text fill="#000000" font-family="sans-serif" font-size="14" lengthAdjust="spacing" textLength="253" x="1009.5" y="651.4139">launch(const ATarget&amp; target) const</text></g><!--class Polymorph--><g id="elem_Polymorph"><rect codeLine="19" fill="#F1F1F1" height="145.7813" id="Polymorph" rx="2.5" ry="2.5" style="stroke:#181818;stroke-width:0.5;" width="237" x="487.5" y="735.72"/><ellipse cx="565.25" cy="751.72" fill="#FF7700" rx="11" ry="11" style="stroke:#181818;stroke-width:1.0;"/><path d="M561.1719,747.4856 L561.1719,745.3294 L568.5625,745.3294 L568.5625,747.4856 L566.0938,747.4856 L566.0938,755.5638 L568.5625,755.5638 L568.5625,757.72 L561.1719,757.72 L561.1719,755.5638 L563.6406,755.5638 L563.6406,747.4856 L561.1719,747.4856 Z " fill="#000000"/><text fill="#000000" font-family="sans-serif" font-size="14" lengthAdjust="spacing" textLength="73" x="585.75" y="756.5667">Polymorph</text><line style="stroke:#181818;stroke-width:0.5;" x1="488.5" x2="723.5" y1="767.72" y2="767.72"/><line style="stroke:#181818;stroke-width:0.5;" x1="488.5" x2="723.5" y1="775.72" y2="775.72"/><ellipse cx="498.5" cy="789.3684" fill="#84BE84" rx="3" ry="3" style="stroke:#038048;stroke-width:1.0;"/><text fill="#000000" font-family="sans-serif" font-size="14" lengthAdjust="spacing" textLength="83" x="507.5" y="792.7151">Polymorph()</text><ellipse cx="498.5" cy="805.6653" fill="#84BE84" rx="3" ry="3" style="stroke:#038048;stroke-width:1.0;"/><text fill="#000000" font-family="sans-serif" font-size="14" lengthAdjust="spacing" textLength="169" x="507.5" y="809.012">Polymorph(string, string)</text><ellipse cx="498.5" cy="821.9622" fill="#84BE84" rx="3" ry="3" style="stroke:#038048;stroke-width:1.0;"/><text fill="#000000" font-family="sans-serif" font-size="14" lengthAdjust="spacing" textLength="211" x="507.5" y="825.3089">Polymorph(const Polymorph&amp;)</text><ellipse cx="498.5" cy="838.2591" fill="#84BE84" rx="3" ry="3" style="stroke:#038048;stroke-width:1.0;"/><text fill="#000000" font-family="sans-serif" font-size="14" lengthAdjust="spacing" textLength="209" x="507.5" y="841.6057">operator=(const Polymorph&amp;)</text><ellipse cx="498.5" cy="854.5559" fill="#84BE84" rx="3" ry="3" style="stroke:#038048;stroke-width:1.0;"/><text fill="#000000" font-family="sans-serif" font-size="14" lengthAdjust="spacing" textLength="139" x="507.5" y="857.9026">virtual ~Polymorph()</text><ellipse cx="498.5" cy="870.8528" fill="#84BE84" rx="3" ry="3" style="stroke:#038048;stroke-width:1.0;"/><text fill="#000000" font-family="sans-serif" font-size="14" lengthAdjust="spacing" textLength="197" x="507.5" y="874.1995">virtual clone() const : ASpell*</text></g><!--class Fwoosh--><g id="elem_Fwoosh"><rect codeLine="28" fill="#F1F1F1" height="145.7813" id="Fwoosh" rx="2.5" ry="2.5" style="stroke:#181818;stroke-width:0.5;" width="223" x="759.5" y="735.72"/><ellipse cx="839.75" cy="751.72" fill="#FF7700" rx="11" ry="11" style="stroke:#181818;stroke-width:1.0;"/><path d="M835.6719,747.4856 L835.6719,745.3294 L843.0625,745.3294 L843.0625,747.4856 L840.5938,747.4856 L840.5938,755.5638 L843.0625,755.5638 L843.0625,757.72 L835.6719,757.72 L835.6719,755.5638 L838.1406,755.5638 L838.1406,747.4856 L835.6719,747.4856 Z " fill="#000000"/><text fill="#000000" font-family="sans-serif" font-size="14" lengthAdjust="spacing" textLength="54" x="860.25" y="756.5667">Fwoosh</text><line style="stroke:#181818;stroke-width:0.5;" x1="760.5" x2="981.5" y1="767.72" y2="767.72"/><line style="stroke:#181818;stroke-width:0.5;" x1="760.5" x2="981.5" y1="775.72" y2="775.72"/><ellipse cx="770.5" cy="789.3684" fill="#84BE84" rx="3" ry="3" style="stroke:#038048;stroke-width:1.0;"/><text fill="#000000" font-family="sans-serif" font-size="14" lengthAdjust="spacing" textLength="64" x="779.5" y="792.7151">Fwoosh()</text><ellipse cx="770.5" cy="805.6653" fill="#84BE84" rx="3" ry="3" style="stroke:#038048;stroke-width:1.0;"/><text fill="#000000" font-family="sans-serif" font-size="14" lengthAdjust="spacing" textLength="150" x="779.5" y="809.012">Fwoosh(string, string)</text><ellipse cx="770.5" cy="821.9622" fill="#84BE84" rx="3" ry="3" style="stroke:#038048;stroke-width:1.0;"/><text fill="#000000" font-family="sans-serif" font-size="14" lengthAdjust="spacing" textLength="173" x="779.5" y="825.3089">Fwoosh(const Fwoosh&amp;)</text><ellipse cx="770.5" cy="838.2591" fill="#84BE84" rx="3" ry="3" style="stroke:#038048;stroke-width:1.0;"/><text fill="#000000" font-family="sans-serif" font-size="14" lengthAdjust="spacing" textLength="190" x="779.5" y="841.6057">operator=(const Fwoosh&amp;)</text><ellipse cx="770.5" cy="854.5559" fill="#84BE84" rx="3" ry="3" style="stroke:#038048;stroke-width:1.0;"/><text fill="#000000" font-family="sans-serif" font-size="14" lengthAdjust="spacing" textLength="120" x="779.5" y="857.9026">virtual ~Fwoosh()</text><ellipse cx="770.5" cy="870.8528" fill="#84BE84" rx="3" ry="3" style="stroke:#038048;stroke-width:1.0;"/><text fill="#000000" font-family="sans-serif" font-size="14" lengthAdjust="spacing" textLength="197" x="779.5" y="874.1995">virtual clone() const : ASpell*</text></g><!--class Fireball--><g id="elem_Fireball"><rect codeLine="37" fill="#F1F1F1" height="145.7813" id="Fireball" rx="2.5" ry="2.5" style="stroke:#181818;stroke-width:0.5;" width="223" x="1017.5" y="735.72"/><ellipse cx="1100.75" cy="751.72" fill="#FF7700" rx="11" ry="11" style="stroke:#181818;stroke-width:1.0;"/><path d="M1096.6719,747.4856 L1096.6719,745.3294 L1104.0625,745.3294 L1104.0625,747.4856 L1101.5938,747.4856 L1101.5938,755.5638 L1104.0625,755.5638 L1104.0625,757.72 L1096.6719,757.72 L1096.6719,755.5638 L1099.1406,755.5638 L1099.1406,747.4856 L1096.6719,747.4856 Z " fill="#000000"/><text fill="#000000" font-family="sans-serif" font-size="14" lengthAdjust="spacing" textLength="48" x="1121.25" y="756.5667">Fireball</text><line style="stroke:#181818;stroke-width:0.5;" x1="1018.5" x2="1239.5" y1="767.72" y2="767.72"/><line style="stroke:#181818;stroke-width:0.5;" x1="1018.5" x2="1239.5" y1="775.72" y2="775.72"/><ellipse cx="1028.5" cy="789.3684" fill="#84BE84" rx="3" ry="3" style="stroke:#038048;stroke-width:1.0;"/><text fill="#000000" font-family="sans-serif" font-size="14" lengthAdjust="spacing" textLength="58" x="1037.5" y="792.7151">Fireball()</text><ellipse cx="1028.5" cy="805.6653" fill="#84BE84" rx="3" ry="3" style="stroke:#038048;stroke-width:1.0;"/><text fill="#000000" font-family="sans-serif" font-size="14" lengthAdjust="spacing" textLength="144" x="1037.5" y="809.012">Fireball(string, string)</text><ellipse cx="1028.5" cy="821.9622" fill="#84BE84" rx="3" ry="3" style="stroke:#038048;stroke-width:1.0;"/><text fill="#000000" font-family="sans-serif" font-size="14" lengthAdjust="spacing" textLength="161" x="1037.5" y="825.3089">Fireball(const Fireball&amp;)</text><ellipse cx="1028.5" cy="838.2591" fill="#84BE84" rx="3" ry="3" style="stroke:#038048;stroke-width:1.0;"/><text fill="#000000" font-family="sans-serif" font-size="14" lengthAdjust="spacing" textLength="184" x="1037.5" y="841.6057">operator=(const Fireball&amp;)</text><ellipse cx="1028.5" cy="854.5559" fill="#84BE84" rx="3" ry="3" style="stroke:#038048;stroke-width:1.0;"/><text fill="#000000" font-family="sans-serif" font-size="14" lengthAdjust="spacing" textLength="114" x="1037.5" y="857.9026">virtual ~Fireball()</text><ellipse cx="1028.5" cy="870.8528" fill="#84BE84" rx="3" ry="3" style="stroke:#038048;stroke-width:1.0;"/><text fill="#000000" font-family="sans-serif" font-size="14" lengthAdjust="spacing" textLength="197" x="1037.5" y="874.1995">virtual clone() const : ASpell*</text></g><!--class ATarget--><g id="elem_ATarget"><rect fill="#F1F1F1" height="48" id="ATarget" rx="2.5" ry="2.5" style="stroke:#181818;stroke-width:0.5;" width="86" x="1275" y="784.61"/><ellipse cx="1290" cy="800.61" fill="#ADD1B2" rx="11" ry="11" style="stroke:#181818;stroke-width:1.0;"/><path d="M1292.9688,806.2506 Q1292.3906,806.5475 1291.75,806.6881 Q1291.1094,806.8444 1290.4063,806.8444 Q1287.9063,806.8444 1286.5781,805.2038 Q1285.2656,803.5475 1285.2656,800.4225 Q1285.2656,797.2975 1286.5781,795.6413 Q1287.9063,793.985 1290.4063,793.985 Q1291.1094,793.985 1291.75,794.1413 Q1292.4063,794.2975 1292.9688,794.5944 L1292.9688,797.3131 Q1292.3438,796.735 1291.75,796.4694 Q1291.1563,796.1881 1290.5313,796.1881 Q1289.1875,796.1881 1288.5,797.2663 Q1287.8125,798.3288 1287.8125,800.4225 Q1287.8125,802.5163 1288.5,803.5944 Q1289.1875,804.6569 1290.5313,804.6569 Q1291.1563,804.6569 1291.75,804.3913 Q1292.3438,804.11 1292.9688,803.5319 L1292.9688,806.2506 Z " fill="#000000"/><text fill="#000000" font-family="sans-serif" font-size="14" lengthAdjust="spacing" textLength="54" x="1304" y="805.4567">ATarget</text><line style="stroke:#181818;stroke-width:0.5;" x1="1276" x2="1360" y1="816.61" y2="816.61"/><line style="stroke:#181818;stroke-width:0.5;" x1="1276" x2="1360" y1="824.61" y2="824.61"/></g><!--class ATarget--><g id="elem_ATarget"><rect codeLine="54" fill="#F1F1F1" height="194.6719" id="ATarget" rx="2.5" ry="2.5" style="stroke:#181818;stroke-width:0.5;" width="303" x="1416.5" y="89.89"/><ellipse cx="1536.75" cy="105.89" fill="#ADD8E6" rx="11" ry="11" style="stroke:#181818;stroke-width:1.0;"/><path d="M1536.8594,101.2337 L1535.7031,106.3119 L1538.0313,106.3119 L1536.8594,101.2337 Z M1535.375,98.9994 L1538.3594,98.9994 L1541.7188,111.39 L1539.2656,111.39 L1538.5,108.3275 L1535.2188,108.3275 L1534.4688,111.39 L1532.0313,111.39 L1535.375,98.9994 Z " fill="#000000"/><text fill="#000000" font-family="sans-serif" font-size="14" lengthAdjust="spacing" textLength="54" x="1557.25" y="110.7367">ATarget</text><line style="stroke:#181818;stroke-width:0.5;" x1="1417.5" x2="1718.5" y1="121.89" y2="121.89"/><rect fill="none" height="6" style="stroke:#C82930;stroke-width:1.0;" width="6" x="1424.5" y="132.5384"/><text fill="#000000" font-family="sans-serif" font-size="14" lengthAdjust="spacing" textLength="89" x="1436.5" y="138.8851">_type : string</text><line style="stroke:#181818;stroke-width:0.5;" x1="1417.5" x2="1718.5" y1="146.1869" y2="146.1869"/><ellipse cx="1427.5" cy="159.8353" fill="#84BE84" rx="3" ry="3" style="stroke:#038048;stroke-width:1.0;"/><text fill="#000000" font-family="sans-serif" font-size="14" lengthAdjust="spacing" textLength="64" x="1436.5" y="163.182">ATarget()</text><ellipse cx="1427.5" cy="176.1322" fill="#84BE84" rx="3" ry="3" style="stroke:#038048;stroke-width:1.0;"/><text fill="#000000" font-family="sans-serif" font-size="14" lengthAdjust="spacing" textLength="103" x="1436.5" y="179.4789">ATarget(string)</text><ellipse cx="1427.5" cy="192.4291" fill="#84BE84" rx="3" ry="3" style="stroke:#038048;stroke-width:1.0;"/><text fill="#000000" font-family="sans-serif" font-size="14" lengthAdjust="spacing" textLength="173" x="1436.5" y="195.7757">ATarget(const ATarget&amp;)</text><ellipse cx="1427.5" cy="208.7259" fill="#84BE84" rx="3" ry="3" style="stroke:#038048;stroke-width:1.0;"/><text fill="#000000" font-family="sans-serif" font-size="14" lengthAdjust="spacing" textLength="190" x="1436.5" y="212.0726">operator=(const ATarget&amp;)</text><ellipse cx="1427.5" cy="225.0228" fill="#84BE84" rx="3" ry="3" style="stroke:#038048;stroke-width:1.0;"/><text fill="#000000" font-family="sans-serif" font-size="14" lengthAdjust="spacing" textLength="120" x="1436.5" y="228.3695">virtual ~ATarget()</text><ellipse cx="1427.5" cy="241.3197" fill="#84BE84" rx="3" ry="3" style="stroke:#038048;stroke-width:1.0;"/><text fill="#000000" font-family="sans-serif" font-size="14" lengthAdjust="spacing" textLength="217" x="1436.5" y="244.6664">getType() const : const string&amp;</text><ellipse cx="1427.5" cy="257.6166" fill="#84BE84" rx="3" ry="3" style="stroke:#038048;stroke-width:1.0;"/><text fill="#000000" font-family="sans-serif" font-size="14" lengthAdjust="spacing" textLength="238" x="1436.5" y="260.9632">virtual clone() const : ATarget* = 0</text><ellipse cx="1427.5" cy="273.9134" fill="#84BE84" rx="3" ry="3" style="stroke:#038048;stroke-width:1.0;"/><text fill="#000000" font-family="sans-serif" font-size="14" lengthAdjust="spacing" textLength="277" x="1436.5" y="277.2601">getHitBySpell(const ASpell&amp; spell) const</text></g><!--class Dummy--><g id="elem_Dummy"><rect codeLine="66" fill="#F1F1F1" height="145.7813" id="Dummy" rx="2.5" ry="2.5" style="stroke:#181818;stroke-width:0.5;" width="235" x="1417.5" y="472.2"/><ellipse cx="1504.25" cy="488.2" fill="#FF7700" rx="11" ry="11" style="stroke:#181818;stroke-width:1.0;"/><path d="M1500.1719,483.9656 L1500.1719,481.8094 L1507.5625,481.8094 L1507.5625,483.9656 L1505.0938,483.9656 L1505.0938,492.0438 L1507.5625,492.0438 L1507.5625,494.2 L1500.1719,494.2 L1500.1719,492.0438 L1502.6406,492.0438 L1502.6406,483.9656 L1500.1719,483.9656 Z " fill="#000000"/><text fill="#000000" font-family="sans-serif" font-size="14" lengthAdjust="spacing" textLength="53" x="1524.75" y="493.0467">Dummy</text><line style="stroke:#181818;stroke-width:0.5;" x1="1418.5" x2="1651.5" y1="504.2" y2="504.2"/><line style="stroke:#181818;stroke-width:0.5;" x1="1418.5" x2="1651.5" y1="512.2" y2="512.2"/><ellipse cx="1428.5" cy="525.8484" fill="#84BE84" rx="3" ry="3" style="stroke:#038048;stroke-width:1.0;"/><text fill="#000000" font-family="sans-serif" font-size="14" lengthAdjust="spacing" textLength="63" x="1437.5" y="529.1951">Dummy()</text><ellipse cx="1428.5" cy="542.1453" fill="#84BE84" rx="3" ry="3" style="stroke:#038048;stroke-width:1.0;"/><text fill="#000000" font-family="sans-serif" font-size="14" lengthAdjust="spacing" textLength="102" x="1437.5" y="545.492">Dummy(string)</text><ellipse cx="1428.5" cy="558.4422" fill="#84BE84" rx="3" ry="3" style="stroke:#038048;stroke-width:1.0;"/><text fill="#000000" font-family="sans-serif" font-size="14" lengthAdjust="spacing" textLength="171" x="1437.5" y="561.7889">Dummy(const Dummy&amp;)</text><ellipse cx="1428.5" cy="574.7391" fill="#84BE84" rx="3" ry="3" style="stroke:#038048;stroke-width:1.0;"/><text fill="#000000" font-family="sans-serif" font-size="14" lengthAdjust="spacing" textLength="189" x="1437.5" y="578.0857">operator=(const Dummy&amp;)</text><ellipse cx="1428.5" cy="591.0359" fill="#84BE84" rx="3" ry="3" style="stroke:#038048;stroke-width:1.0;"/><text fill="#000000" font-family="sans-serif" font-size="14" lengthAdjust="spacing" textLength="119" x="1437.5" y="594.3826">virtual ~Dummy()</text><ellipse cx="1428.5" cy="607.3328" fill="#84BE84" rx="3" ry="3" style="stroke:#038048;stroke-width:1.0;"/><text fill="#000000" font-family="sans-serif" font-size="14" lengthAdjust="spacing" textLength="209" x="1437.5" y="610.6795">virtual clone() const : ATarget*</text></g><!--class BrickWall--><g id="elem_BrickWall"><rect codeLine="75" fill="#F1F1F1" height="145.7813" id="BrickWall" rx="2.5" ry="2.5" style="stroke:#181818;stroke-width:0.5;" width="235" x="1687.5" y="472.2"/><ellipse cx="1770.25" cy="488.2" fill="#FF7700" rx="11" ry="11" style="stroke:#181818;stroke-width:1.0;"/><path d="M1766.1719,483.9656 L1766.1719,481.8094 L1773.5625,481.8094 L1773.5625,483.9656 L1771.0938,483.9656 L1771.0938,492.0438 L1773.5625,492.0438 L1773.5625,494.2 L1766.1719,494.2 L1766.1719,492.0438 L1768.6406,492.0438 L1768.6406,483.9656 L1766.1719,483.9656 Z " fill="#000000"/><text fill="#000000" font-family="sans-serif" font-size="14" lengthAdjust="spacing" textLength="61" x="1790.75" y="493.0467">BrickWall</text><line style="stroke:#181818;stroke-width:0.5;" x1="1688.5" x2="1921.5" y1="504.2" y2="504.2"/><line style="stroke:#181818;stroke-width:0.5;" x1="1688.5" x2="1921.5" y1="512.2" y2="512.2"/><ellipse cx="1698.5" cy="525.8484" fill="#84BE84" rx="3" ry="3" style="stroke:#038048;stroke-width:1.0;"/><text fill="#000000" font-family="sans-serif" font-size="14" lengthAdjust="spacing" textLength="71" x="1707.5" y="529.1951">BrickWall()</text><ellipse cx="1698.5" cy="542.1453" fill="#84BE84" rx="3" ry="3" style="stroke:#038048;stroke-width:1.0;"/><text fill="#000000" font-family="sans-serif" font-size="14" lengthAdjust="spacing" textLength="110" x="1707.5" y="545.492">BrickWall(string)</text><ellipse cx="1698.5" cy="558.4422" fill="#84BE84" rx="3" ry="3" style="stroke:#038048;stroke-width:1.0;"/><text fill="#000000" font-family="sans-serif" font-size="14" lengthAdjust="spacing" textLength="187" x="1707.5" y="561.7889">BrickWall(const BrickWall&amp;)</text><ellipse cx="1698.5" cy="574.7391" fill="#84BE84" rx="3" ry="3" style="stroke:#038048;stroke-width:1.0;"/><text fill="#000000" font-family="sans-serif" font-size="14" lengthAdjust="spacing" textLength="197" x="1707.5" y="578.0857">operator=(const BrickWall&amp;)</text><ellipse cx="1698.5" cy="591.0359" fill="#84BE84" rx="3" ry="3" style="stroke:#038048;stroke-width:1.0;"/><text fill="#000000" font-family="sans-serif" font-size="14" lengthAdjust="spacing" textLength="127" x="1707.5" y="594.3826">virtual ~BrickWall()</text><ellipse cx="1698.5" cy="607.3328" fill="#84BE84" rx="3" ry="3" style="stroke:#038048;stroke-width:1.0;"/><text fill="#000000" font-family="sans-serif" font-size="14" lengthAdjust="spacing" textLength="209" x="1707.5" y="610.6795">virtual clone() const : ATarget*</text></g><!--reverse link ASpell to Polymorph--><g id="link_ASpell_Polymorph"><path codeLine="46" d="M973.5425,665.5294 C873.0125,718.6894 846.92,691.86 742,735.72 C736.33,738.09 730.59,740.61 724.82,743.24 " fill="none" id="ASpell-backto-Polymorph" style="stroke:#181818;stroke-width:1.0;"/><polygon fill="none" points="989.35,656.92,970.6727,660.2603,976.4123,670.7986,989.35,656.92" style="stroke:#181818;stroke-width:1.0;"/></g><!--reverse link ASpell to Fwoosh--><g id="link_ASpell_Fwoosh"><path codeLine="47" d="M1005.0687,671.7039 C979.4287,697.6939 965.48,711.84 942.09,735.54 " fill="none" id="ASpell-backto-Fwoosh" style="stroke:#181818;stroke-width:1.0;"/><polygon fill="none" points="1017.71,658.89,1000.7973,667.4901,1009.34,675.9177,1017.71,658.89" style="stroke:#181818;stroke-width:1.0;"/></g><!--reverse link ASpell to Fireball--><g id="link_ASpell_Fireball"><path codeLine="48" d="M1129,676.89 C1129,702.88 1129,711.84 1129,735.54 " fill="none" id="ASpell-backto-Fireball" style="stroke:#181818;stroke-width:1.0;"/><polygon fill="none" points="1129,658.89,1123,676.89,1135,676.89,1129,658.89" style="stroke:#181818;stroke-width:1.0;"/></g><!--reverse link ASpell to ATarget--><g id="link_ASpell_ATarget"><path codeLine="49" d="M1166.8752,669.8134 C1175.2052,686.7934 1180.25,692.3 1193,705.72 C1214.92,728.78 1232.75,716.37 1258,735.72 C1275.68,749.27 1291.62,768.9 1302.62,784.23 " fill="none" id="ASpell-backto-ATarget" style="stroke:#181818;stroke-width:1.0;"/><polygon fill="none" points="1161.59,659.04,1160.6415,666.1884,1166.8752,669.8134,1167.8237,662.665,1161.59,659.04" style="stroke:#181818;stroke-width:1.0;"/><polygon fill="#000000" points="1201.8231,700.5088,1196.8011,692.4323,1193.013,696.9266,1201.8231,700.5088" style="stroke:#000000;stroke-width:1.0;"/><text fill="#000000" font-family="sans-serif" font-size="13" lengthAdjust="spacing" textLength="44" x="1207" y="701.7869">Affects</text></g><!--link ASpell to ATarget--><g id="link_ASpell_ATarget"><path codeLine="50" d="M1233.83,658.88 C1241.63,668.74 1249.13,678.76 1256,688.72 C1277.55,719.95 1294.3224,754.1409 1305.4624,778.8309 " fill="none" id="ASpell-to-ATarget" style="stroke:#181818;stroke-width:1.0;"/><polygon fill="#181818" points="1307.93,784.3,1307.8746,774.4513,1305.8736,779.7424,1300.5825,777.7415,1307.93,784.3" style="stroke:#181818;stroke-width:1.0;"/><polygon fill="#000000" points="1272.5636,701.5792,1270.4493,692.3066,1265.4028,695.3203,1272.5636,701.5792" style="stroke:#000000;stroke-width:1.0;"/><text fill="#000000" font-family="sans-serif" font-size="13" lengthAdjust="spacing" textLength="42" x="1279" y="701.7869">launch</text></g><!--reverse link ATarget to Dummy--><g id="link_ATarget_Dummy"><path codeLine="84" d="M1557.3672,302.923 C1551.8972,361.883 1546.69,418.06 1541.69,471.9 " fill="none" id="ATarget-backto-Dummy" style="stroke:#181818;stroke-width:1.0;"/><polygon fill="none" points="1559.03,285,1551.3929,302.3688,1563.3415,303.4773,1559.03,285" style="stroke:#181818;stroke-width:1.0;"/></g><!--reverse link ATarget to BrickWall--><g id="link_ATarget_BrickWall"><path codeLine="85" d="M1642.4282,299.9812 C1681.6982,358.9412 1721.07,418.06 1756.92,471.9 " fill="none" id="ATarget-backto-BrickWall" style="stroke:#181818;stroke-width:1.0;"/><polygon fill="none" points="1632.45,285,1637.4344,303.3073,1647.4219,296.6552,1632.45,285" style="stroke:#181818;stroke-width:1.0;"/></g><!--link ATarget to ASpell--><g id="link_ATarget_ASpell"><path codeLine="86" d="M1468.21,284.86 C1450.16,301.43 1431.26,318.21 1413,333.45 C1367.29,371.61 1320.2773,407.5403 1273.5073,441.8603 " fill="none" id="ATarget-to-ASpell" style="stroke:#181818;stroke-width:1.0;"/><polygon fill="#181818" points="1268.67,445.41,1278.2925,443.3104,1272.7011,442.4519,1273.5596,436.8606,1268.67,445.41" style="stroke:#181818;stroke-width:1.0;"/><polygon fill="#000000" points="1376.1078,375.155,1384.9937,371.7651,1381.3041,367.1895,1376.1078,375.155" style="stroke:#000000;stroke-width:1.0;"/><text fill="#000000" font-family="sans-serif" font-size="13" lengthAdjust="spacing" textLength="86" x="1389" y="376.5169">getHitBySpell</text></g><!--reverse link Warlock to SpellBook--><g id="link_Warlock_SpellBook"><path codeLine="129" d="M432.4381,343.7276 C404.9381,385.0176 382.48,418.74 357.97,455.55 " fill="none" id="Warlock-backto-SpellBook" style="stroke:#181818;stroke-width:1.0;"/><polygon fill="none" points="439.09,333.74,432.4348,336.5165,432.4381,343.7276,439.0932,340.9511,439.09,333.74" style="stroke:#181818;stroke-width:1.0;"/><polygon fill="#000000" points="419.2286,376.178,426.6883,370.2786,421.796,367.0206,419.2286,376.178" style="stroke:#000000;stroke-width:1.0;"/><text fill="#000000" font-family="sans-serif" font-size="13" lengthAdjust="spacing" textLength="32" x="431" y="376.5169">Uses</text></g><!--link Warlock to ASpell--><g id="link_Warlock_ASpell"><path codeLine="130" d="M679.48,234.89 C772.02,268.99 892.17,321.02 986,388.45 C1003.28,400.87 1015.8001,411.4347 1031.4401,426.8747 " fill="none" id="Warlock-to-ASpell" style="stroke:#181818;stroke-width:1.0;"/><polygon fill="#181818" points="1035.71,431.09,1032.1154,421.9206,1032.1518,427.5773,1026.4951,427.6137,1035.71,431.09" style="stroke:#181818;stroke-width:1.0;"/><polygon fill="#000000" points="973.3894,374.4107,966.8562,367.4993,964.0415,372.6594,973.3894,374.4107" style="stroke:#000000;stroke-width:1.0;"/><text fill="#000000" font-family="sans-serif" font-size="13" lengthAdjust="spacing" textLength="144" x="978" y="376.5169">learnSpell, launchSpell</text></g><!--link Warlock to ATarget--><g id="link_Warlock_ATarget"><path codeLine="131" d="M392.56,323.44 C387.09,326.98 381.56,330.33 376,333.45 C311.77,369.57 289.4,366.71 217,380.45 C197.06,384.24 142.25,376.29 126,388.45 C83.6,420.19 71.3204,479.8076 67.3804,514.8476 " fill="none" id="Warlock-to-ATarget" style="stroke:#181818;stroke-width:1.0;"/><polygon fill="#181818" points="66.71,520.81,71.6906,512.3133,67.2687,515.8413,63.7407,511.4194,66.71,520.81" style="stroke:#181818;stroke-width:1.0;"/><polygon fill="#000000" points="304.6911,374.5527,313.9768,372.4972,310.9952,367.4317,304.6911,374.5527" style="stroke:#000000;stroke-width:1.0;"/><text fill="#000000" font-family="sans-serif" font-size="13" lengthAdjust="spacing" textLength="73" x="318" y="376.5169">launchSpell</text></g><!--reverse link TargetGenerator to ATarget--><g id="link_TargetGenerator_ATarget"><path codeLine="132" d="M154.9627,287.9717 C126.4727,369.0717 90.18,472.4 73.13,520.94 " fill="none" id="TargetGenerator-backto-ATarget" style="stroke:#181818;stroke-width:1.0;"/><polygon fill="none" points="158.94,276.65,153.1775,280.9851,154.9627,287.9717,160.7253,283.6366,158.94,276.65" style="stroke:#181818;stroke-width:1.0;"/><polygon fill="#000000" points="130.3429,376.7338,136.1134,369.1739,130.5677,367.2259,130.3429,376.7338" style="stroke:#000000;stroke-width:1.0;"/><text fill="#000000" font-family="sans-serif" font-size="13" lengthAdjust="spacing" textLength="67" x="141" y="376.5169">Generates</text></g><!--SRC=[bLPDRzim3BtdLmWT4AHp0kIq3a4Re46RTPTXs5hqEAYksXfHh41sEWHR-jidYzItbQovE2IVHRudaVA6bYlwpCZ93QEFJ99bnLbpGluC1eHiJEpdXd5EVZ1EM_PuGZvSNbrzllwaG4JzIawRXbm2vloSZ2x71d5AvdD44JBvLTCr8pFIjBAgdwsNFJsnictYG04hZauZ6q1Z1CVHKjHDYyKCRL1icAIja1UP-6ibsotbv2tE-SpQRwheqIc15-CQLVmQoiz2pDeb5xM_4AJwI2x8r40vtTRbYwdnbagr_92q-ealQkX-u0d_NV3TMiZDYzR-gz9-kJmxcqu3xGkBSjoSAoEf0q15riuBsmEnslQKS4IRbEpojn3DOQO0SJdGpd34A2G68yykZbjgSSxtyweaUw3OFrbc2FAu6K-EdObZ_MWUO9WW7CSa-pjOckdmTp9nPoI9W8of6pFx0Q7ys25THXmXSnyocSmz2FIMHko3sOO8DzoMwdSz3OSRWWvEjtQtOUaGWpUzAOQEU7oXE-pz_02B0Mw2nGcLSQigy_O7db30yEXcmdh1d5BsJTKkTZqZbpJT8pkihhRhzUxW8TS8LpsOaLZWXBpwVrweA6nbYj8SOvyoMSYgNDqVQrcBSgcSAsBb0f3TsdbsFH3Bi2VrUrZQ8zzre5OhTTiKGKZt7RJWZ0H7nNKVQ7XF9HVb2kNg-pvGNLMrF74-2B5IFhteGltNxWANGrs1tT3CH3H1Yuc1HYO8WfR1ngA7OITuk6RFfqFQTxevEuA7KOr1zL0fghgLud5RsZN0pHcLDJGepcF4Fubkb_nlAGp0X0m_ij9fussVbTzk8AyqXLSrZ8Kynxmmb0kBDg8x1sInTaxu652ynMl-7-j0OT8TEWILagax80iAhZPF1r3d2wkXt9mQs6GeH_II4ILsGncHDoTGFwnuwyy5Oa5Ctn2cma0oBtv4j-06IuHp8qOhPrg_kyVTEPgHkuR1DMu0mJHnspictd5DNuYkVOUAzohyZa2_Bc6m7_m3]--></g></svg>