<?xml version="1.0" encoding="us-ascii" standalone="no"?><svg xmlns="http://www.w3.org/2000/svg" xmlns:xlink="http://www.w3.org/1999/xlink" contentStyleType="text/css" height="1226px" preserveAspectRatio="none" style="width:1623px;height:1226px;background:#FFFFFF;" version="1.1" viewBox="0 0 1623 1226" width="1623px" zoomAndPan="magnify"><defs/><g><!--cluster Header Files--><g id="cluster_Header Files"><path d="M8.5,6 L107.5,6 A3.75,3.75 0 0 1 110,8.5 L117,28.2969 L1613.5,28.2969 A2.5,2.5 0 0 1 1616,30.7969 L1616,1217.38 A2.5,2.5 0 0 1 1613.5,1219.88 L8.5,1219.88 A2.5,2.5 0 0 1 6,1217.38 L6,8.5 A2.5,2.5 0 0 1 8.5,6 " fill="none" style="stroke:#000000;stroke-width:1.5;"/><line style="stroke:#000000;stroke-width:1.5;" x1="6" x2="117" y1="28.2969" y2="28.2969"/><text fill="#000000" font-family="sans-serif" font-size="14" font-weight="bold" lengthAdjust="spacing" textLength="98" x="10" y="20.9951">Header Files</text></g><!--cluster Spell Related--><g id="cluster_Spell Related"><path d="M126.5,694.83 L229.5,694.83 A3.75,3.75 0 0 1 232,697.33 L239,717.1269 L1027.5,717.1269 A2.5,2.5 0 0 1 1030,719.6269 L1030,1193.38 A2.5,2.5 0 0 1 1027.5,1195.88 L126.5,1195.88 A2.5,2.5 0 0 1 124,1193.38 L124,697.33 A2.5,2.5 0 0 1 126.5,694.83 " fill="#ADD8E6" style="stroke:#000000;stroke-width:1.5;"/><line style="stroke:#000000;stroke-width:1.5;" x1="124" x2="239" y1="717.1269" y2="717.1269"/><text fill="#000000" font-family="sans-serif" font-size="14" font-weight="bold" lengthAdjust="spacing" textLength="102" x="128" y="709.8251">Spell Related</text></g><!--cluster Target Related--><g id="cluster_Target Related"><path d="M1056.5,49 L1173.5,49 A3.75,3.75 0 0 1 1176,51.5 L1183,71.2969 L1589.5,71.2969 A2.5,2.5 0 0 1 1592,73.7969 L1592,929.86 A2.5,2.5 0 0 1 1589.5,932.36 L1056.5,932.36 A2.5,2.5 0 0 1 1054,929.86 L1054,51.5 A2.5,2.5 0 0 1 1056.5,49 " fill="#FFFFE0" style="stroke:#000000;stroke-width:1.5;"/><line style="stroke:#000000;stroke-width:1.5;" x1="1054" x2="1183" y1="71.2969" y2="71.2969"/><text fill="#000000" font-family="sans-serif" font-size="14" font-weight="bold" lengthAdjust="spacing" textLength="116" x="1058" y="63.9951">Target Related</text></g><!--class Warlock--><g id="elem_Warlock"><rect codeLine="112" fill="#F1F1F1" height="292.4531" id="Warlock" rx="2.5" ry="2.5" style="stroke:#181818;stroke-width:0.5;" width="286" x="233" y="339.38"/><ellipse cx="344.75" cy="355.38" fill="#ADD1B2" rx="11" ry="11" style="stroke:#181818;stroke-width:1.0;"/><path d="M347.7188,361.0206 Q347.1406,361.3175 346.5,361.4581 Q345.8594,361.6144 345.1563,361.6144 Q342.6563,361.6144 341.3281,359.9738 Q340.0156,358.3175 340.0156,355.1925 Q340.0156,352.0675 341.3281,350.4113 Q342.6563,348.755 345.1563,348.755 Q345.8594,348.755 346.5,348.9113 Q347.1563,349.0675 347.7188,349.3644 L347.7188,352.0831 Q347.0938,351.505 346.5,351.2394 Q345.9063,350.9581 345.2813,350.9581 Q343.9375,350.9581 343.25,352.0363 Q342.5625,353.0988 342.5625,355.1925 Q342.5625,357.2863 343.25,358.3644 Q343.9375,359.4269 345.2813,359.4269 Q345.9063,359.4269 346.5,359.1613 Q347.0938,358.88 347.7188,358.3019 L347.7188,361.0206 Z " fill="#000000"/><text fill="#000000" font-family="sans-serif" font-size="14" lengthAdjust="spacing" textLength="54" x="365.25" y="360.2267">Warlock</text><line style="stroke:#181818;stroke-width:0.5;" x1="234" x2="518" y1="371.38" y2="371.38"/><rect fill="none" height="6" style="stroke:#C82930;stroke-width:1.0;" width="6" x="241" y="382.0284"/><text fill="#000000" font-family="sans-serif" font-size="14" lengthAdjust="spacing" textLength="98" x="253" y="388.3751">_name : string</text><rect fill="none" height="6" style="stroke:#C82930;stroke-width:1.0;" width="6" x="241" y="398.3253"/><text fill="#000000" font-family="sans-serif" font-size="14" lengthAdjust="spacing" textLength="84" x="253" y="404.672">_title : string</text><rect fill="none" height="6" style="stroke:#C82930;stroke-width:1.0;" width="6" x="241" y="414.6222"/><text fill="#000000" font-family="sans-serif" font-size="14" lengthAdjust="spacing" textLength="124" x="253" y="420.9689">_book : SpellBook</text><line style="stroke:#181818;stroke-width:0.5;" x1="234" x2="518" y1="428.2706" y2="428.2706"/><ellipse cx="244" cy="441.9191" fill="#84BE84" rx="3" ry="3" style="stroke:#038048;stroke-width:1.0;"/><text fill="#000000" font-family="sans-serif" font-size="14" lengthAdjust="spacing" textLength="260" x="253" y="445.2657">Warlock(string const&amp;, string const&amp;)</text><rect fill="#F24D5C" height="6" style="stroke:#C82930;stroke-width:1.0;" width="6" x="241" y="455.2159"/><text fill="#000000" font-family="sans-serif" font-size="14" lengthAdjust="spacing" textLength="64" x="253" y="461.5626">Warlock()</text><rect fill="#F24D5C" height="6" style="stroke:#C82930;stroke-width:1.0;" width="6" x="241" y="471.5128"/><text fill="#000000" font-family="sans-serif" font-size="14" lengthAdjust="spacing" textLength="173" x="253" y="477.8595">Warlock(const Warlock&amp;)</text><rect fill="#F24D5C" height="6" style="stroke:#C82930;stroke-width:1.0;" width="6" x="241" y="487.8097"/><text fill="#000000" font-family="sans-serif" font-size="14" lengthAdjust="spacing" textLength="190" x="253" y="494.1564">operator=(const Warlock&amp;)</text><ellipse cx="244" cy="507.1066" fill="#84BE84" rx="3" ry="3" style="stroke:#038048;stroke-width:1.0;"/><text fill="#000000" font-family="sans-serif" font-size="14" lengthAdjust="spacing" textLength="120" x="253" y="510.4532">virtual ~Warlock()</text><ellipse cx="244" cy="523.4034" fill="#84BE84" rx="3" ry="3" style="stroke:#038048;stroke-width:1.0;"/><text fill="#000000" font-family="sans-serif" font-size="14" lengthAdjust="spacing" textLength="223" x="253" y="526.7501">getName() const : const string&amp;</text><ellipse cx="244" cy="539.7003" fill="#84BE84" rx="3" ry="3" style="stroke:#038048;stroke-width:1.0;"/><text fill="#000000" font-family="sans-serif" font-size="14" lengthAdjust="spacing" textLength="212" x="253" y="543.047">getTitle() const : const string&amp;</text><ellipse cx="244" cy="555.9972" fill="#84BE84" rx="3" ry="3" style="stroke:#038048;stroke-width:1.0;"/><text fill="#000000" font-family="sans-serif" font-size="14" lengthAdjust="spacing" textLength="155" x="253" y="559.3439">setTitle(string const&amp;)</text><ellipse cx="244" cy="572.2941" fill="#84BE84" rx="3" ry="3" style="stroke:#038048;stroke-width:1.0;"/><text fill="#000000" font-family="sans-serif" font-size="14" lengthAdjust="spacing" textLength="119" x="253" y="575.6407">introduce() const</text><ellipse cx="244" cy="588.5909" fill="#84BE84" rx="3" ry="3" style="stroke:#038048;stroke-width:1.0;"/><text fill="#000000" font-family="sans-serif" font-size="14" lengthAdjust="spacing" textLength="126" x="253" y="591.9376">learnSpell(ASpell*)</text><ellipse cx="244" cy="604.8878" fill="#84BE84" rx="3" ry="3" style="stroke:#038048;stroke-width:1.0;"/><text fill="#000000" font-family="sans-serif" font-size="14" lengthAdjust="spacing" textLength="123" x="253" y="608.2345">forgetSpell(string)</text><ellipse cx="244" cy="621.1847" fill="#84BE84" rx="3" ry="3" style="stroke:#038048;stroke-width:1.0;"/><text fill="#000000" font-family="sans-serif" font-size="14" lengthAdjust="spacing" textLength="245" x="253" y="624.5314">launchSpell(string, const ATarget&amp;)</text></g><!--class ATarget--><g id="elem_ATarget"><rect fill="#F1F1F1" height="48" id="ATarget" rx="2.5" ry="2.5" style="stroke:#181818;stroke-width:0.5;" width="86" x="22" y="819.47"/><ellipse cx="37" cy="835.47" fill="#ADD1B2" rx="11" ry="11" style="stroke:#181818;stroke-width:1.0;"/><path d="M39.9688,841.1106 Q39.3906,841.4075 38.75,841.5481 Q38.1094,841.7044 37.4063,841.7044 Q34.9063,841.7044 33.5781,840.0638 Q32.2656,838.4075 32.2656,835.2825 Q32.2656,832.1575 33.5781,830.5013 Q34.9063,828.845 37.4063,828.845 Q38.1094,828.845 38.75,829.0013 Q39.4063,829.1575 39.9688,829.4544 L39.9688,832.1731 Q39.3438,831.595 38.75,831.3294 Q38.1563,831.0481 37.5313,831.0481 Q36.1875,831.0481 35.5,832.1263 Q34.8125,833.1888 34.8125,835.2825 Q34.8125,837.3763 35.5,838.4544 Q36.1875,839.5169 37.5313,839.5169 Q38.1563,839.5169 38.75,839.2513 Q39.3438,838.97 39.9688,838.3919 L39.9688,841.1106 Z " fill="#000000"/><text fill="#000000" font-family="sans-serif" font-size="14" lengthAdjust="spacing" textLength="54" x="51" y="840.3167">ATarget</text><line style="stroke:#181818;stroke-width:0.5;" x1="23" x2="107" y1="851.47" y2="851.47"/><line style="stroke:#181818;stroke-width:0.5;" x1="23" x2="107" y1="859.47" y2="859.47"/></g><!--class ASpell--><g id="elem_ASpell"><rect codeLine="5" fill="#F1F1F1" height="227.2656" id="ASpell" rx="2.5" ry="2.5" style="stroke:#181818;stroke-width:0.5;" width="279" x="642.5" y="729.83"/><ellipse cx="756.75" cy="745.83" fill="#ADD8E6" rx="11" ry="11" style="stroke:#181818;stroke-width:1.0;"/><path d="M756.8594,741.1738 L755.7031,746.2519 L758.0313,746.2519 L756.8594,741.1738 Z M755.375,738.9394 L758.3594,738.9394 L761.7188,751.33 L759.2656,751.33 L758.5,748.2675 L755.2188,748.2675 L754.4688,751.33 L752.0313,751.33 L755.375,738.9394 Z " fill="#000000"/><text fill="#000000" font-family="sans-serif" font-size="14" lengthAdjust="spacing" textLength="42" x="777.25" y="750.6767">ASpell</text><line style="stroke:#181818;stroke-width:0.5;" x1="643.5" x2="920.5" y1="761.83" y2="761.83"/><rect fill="none" height="6" style="stroke:#C82930;stroke-width:1.0;" width="6" x="650.5" y="772.4784"/><text fill="#000000" font-family="sans-serif" font-size="14" lengthAdjust="spacing" textLength="98" x="662.5" y="778.8251">_name : string</text><rect fill="none" height="6" style="stroke:#C82930;stroke-width:1.0;" width="6" x="650.5" y="788.7753"/><text fill="#000000" font-family="sans-serif" font-size="14" lengthAdjust="spacing" textLength="106" x="662.5" y="795.122">_effects : string</text><line style="stroke:#181818;stroke-width:0.5;" x1="643.5" x2="920.5" y1="802.4238" y2="802.4238"/><ellipse cx="653.5" cy="816.0722" fill="#84BE84" rx="3" ry="3" style="stroke:#038048;stroke-width:1.0;"/><text fill="#000000" font-family="sans-serif" font-size="14" lengthAdjust="spacing" textLength="52" x="662.5" y="819.4189">ASpell()</text><ellipse cx="653.5" cy="832.3691" fill="#84BE84" rx="3" ry="3" style="stroke:#038048;stroke-width:1.0;"/><text fill="#000000" font-family="sans-serif" font-size="14" lengthAdjust="spacing" textLength="138" x="662.5" y="835.7157">ASpell(string, string)</text><ellipse cx="653.5" cy="848.6659" fill="#84BE84" rx="3" ry="3" style="stroke:#038048;stroke-width:1.0;"/><text fill="#000000" font-family="sans-serif" font-size="14" lengthAdjust="spacing" textLength="149" x="662.5" y="852.0126">ASpell(const ASpell&amp;)</text><ellipse cx="653.5" cy="864.9628" fill="#84BE84" rx="3" ry="3" style="stroke:#038048;stroke-width:1.0;"/><text fill="#000000" font-family="sans-serif" font-size="14" lengthAdjust="spacing" textLength="178" x="662.5" y="868.3095">operator=(const ASpell&amp;)</text><ellipse cx="653.5" cy="881.2597" fill="#84BE84" rx="3" ry="3" style="stroke:#038048;stroke-width:1.0;"/><text fill="#000000" font-family="sans-serif" font-size="14" lengthAdjust="spacing" textLength="108" x="662.5" y="884.6064">virtual ~ASpell()</text><ellipse cx="653.5" cy="897.5566" fill="#84BE84" rx="3" ry="3" style="stroke:#038048;stroke-width:1.0;"/><text fill="#000000" font-family="sans-serif" font-size="14" lengthAdjust="spacing" textLength="168" x="662.5" y="900.9032">getName() const : string</text><ellipse cx="653.5" cy="913.8534" fill="#84BE84" rx="3" ry="3" style="stroke:#038048;stroke-width:1.0;"/><text fill="#000000" font-family="sans-serif" font-size="14" lengthAdjust="spacing" textLength="175" x="662.5" y="917.2001">getEffects() const : string</text><ellipse cx="653.5" cy="930.1503" fill="#84BE84" rx="3" ry="3" style="stroke:#038048;stroke-width:1.0;"/><text fill="#000000" font-family="sans-serif" font-size="14" lengthAdjust="spacing" textLength="226" x="662.5" y="933.497">virtual clone() const : ASpell* = 0</text><ellipse cx="653.5" cy="946.4472" fill="#84BE84" rx="3" ry="3" style="stroke:#038048;stroke-width:1.0;"/><text fill="#000000" font-family="sans-serif" font-size="14" lengthAdjust="spacing" textLength="253" x="662.5" y="949.7939">launch(const ATarget&amp; target) const</text></g><!--class SpellBook--><g id="elem_SpellBook"><rect codeLine="19" fill="#F1F1F1" height="178.375" id="SpellBook" rx="2.5" ry="2.5" style="stroke:#181818;stroke-width:0.5;" width="312" x="220" y="754.28"/><ellipse cx="337.25" cy="770.28" fill="#ADD1B2" rx="11" ry="11" style="stroke:#181818;stroke-width:1.0;"/><path d="M340.2188,775.9206 Q339.6406,776.2175 339,776.3581 Q338.3594,776.5144 337.6563,776.5144 Q335.1563,776.5144 333.8281,774.8738 Q332.5156,773.2175 332.5156,770.0925 Q332.5156,766.9675 333.8281,765.3113 Q335.1563,763.655 337.6563,763.655 Q338.3594,763.655 339,763.8113 Q339.6563,763.9675 340.2188,764.2644 L340.2188,766.9831 Q339.5938,766.405 339,766.1394 Q338.4063,765.8581 337.7813,765.8581 Q336.4375,765.8581 335.75,766.9363 Q335.0625,767.9988 335.0625,770.0925 Q335.0625,772.1863 335.75,773.2644 Q336.4375,774.3269 337.7813,774.3269 Q338.4063,774.3269 339,774.0613 Q339.5938,773.78 340.2188,773.2019 L340.2188,775.9206 Z " fill="#000000"/><text fill="#000000" font-family="sans-serif" font-size="14" lengthAdjust="spacing" textLength="69" x="357.75" y="775.1267">SpellBook</text><line style="stroke:#181818;stroke-width:0.5;" x1="221" x2="531" y1="786.28" y2="786.28"/><rect fill="none" height="6" style="stroke:#C82930;stroke-width:1.0;" width="6" x="228" y="796.9284"/><text fill="#000000" font-family="sans-serif" font-size="14" lengthAdjust="spacing" textLength="155" x="240" y="803.2751">_list : vector&lt;ASpell*&gt;</text><line style="stroke:#181818;stroke-width:0.5;" x1="221" x2="531" y1="810.5769" y2="810.5769"/><ellipse cx="231" cy="824.2253" fill="#84BE84" rx="3" ry="3" style="stroke:#038048;stroke-width:1.0;"/><text fill="#000000" font-family="sans-serif" font-size="14" lengthAdjust="spacing" textLength="79" x="240" y="827.572">SpellBook()</text><rect fill="#F24D5C" height="6" style="stroke:#C82930;stroke-width:1.0;" width="6" x="228" y="837.5222"/><text fill="#000000" font-family="sans-serif" font-size="14" lengthAdjust="spacing" textLength="203" x="240" y="843.8689">SpellBook(const SpellBook&amp;)</text><rect fill="#F24D5C" height="6" style="stroke:#C82930;stroke-width:1.0;" width="6" x="228" y="853.8191"/><text fill="#000000" font-family="sans-serif" font-size="14" lengthAdjust="spacing" textLength="205" x="240" y="860.1657">operator=(const SpellBook&amp;)</text><ellipse cx="231" cy="873.1159" fill="#84BE84" rx="3" ry="3" style="stroke:#038048;stroke-width:1.0;"/><text fill="#000000" font-family="sans-serif" font-size="14" lengthAdjust="spacing" textLength="91" x="240" y="876.4626">~SpellBook()</text><ellipse cx="231" cy="889.4128" fill="#84BE84" rx="3" ry="3" style="stroke:#038048;stroke-width:1.0;"/><text fill="#000000" font-family="sans-serif" font-size="14" lengthAdjust="spacing" textLength="126" x="240" y="892.7595">learnSpell(ASpell*)</text><ellipse cx="231" cy="905.7097" fill="#84BE84" rx="3" ry="3" style="stroke:#038048;stroke-width:1.0;"/><text fill="#000000" font-family="sans-serif" font-size="14" lengthAdjust="spacing" textLength="221" x="240" y="909.0564">forgetSpell(const string&amp; name)</text><ellipse cx="231" cy="922.0066" fill="#84BE84" rx="3" ry="3" style="stroke:#038048;stroke-width:1.0;"/><text fill="#000000" font-family="sans-serif" font-size="14" lengthAdjust="spacing" textLength="286" x="240" y="925.3532">createSpell(const string&amp; name) : ASpell*</text></g><!--class Polymorph--><g id="elem_Polymorph"><rect codeLine="30" fill="#F1F1F1" height="145.7813" id="Polymorph" rx="2.5" ry="2.5" style="stroke:#181818;stroke-width:0.5;" width="237" x="140.5" y="1034.1"/><ellipse cx="218.25" cy="1050.1" fill="#FF7700" rx="11" ry="11" style="stroke:#181818;stroke-width:1.0;"/><path d="M214.1719,1045.8656 L214.1719,1043.7094 L221.5625,1043.7094 L221.5625,1045.8656 L219.0938,1045.8656 L219.0938,1053.9438 L221.5625,1053.9438 L221.5625,1056.1 L214.1719,1056.1 L214.1719,1053.9438 L216.6406,1053.9438 L216.6406,1045.8656 L214.1719,1045.8656 Z " fill="#000000"/><text fill="#000000" font-family="sans-serif" font-size="14" lengthAdjust="spacing" textLength="73" x="238.75" y="1054.9467">Polymorph</text><line style="stroke:#181818;stroke-width:0.5;" x1="141.5" x2="376.5" y1="1066.1" y2="1066.1"/><line style="stroke:#181818;stroke-width:0.5;" x1="141.5" x2="376.5" y1="1074.1" y2="1074.1"/><ellipse cx="151.5" cy="1087.7484" fill="#84BE84" rx="3" ry="3" style="stroke:#038048;stroke-width:1.0;"/><text fill="#000000" font-family="sans-serif" font-size="14" lengthAdjust="spacing" textLength="83" x="160.5" y="1091.0951">Polymorph()</text><ellipse cx="151.5" cy="1104.0453" fill="#84BE84" rx="3" ry="3" style="stroke:#038048;stroke-width:1.0;"/><text fill="#000000" font-family="sans-serif" font-size="14" lengthAdjust="spacing" textLength="169" x="160.5" y="1107.392">Polymorph(string, string)</text><ellipse cx="151.5" cy="1120.3422" fill="#84BE84" rx="3" ry="3" style="stroke:#038048;stroke-width:1.0;"/><text fill="#000000" font-family="sans-serif" font-size="14" lengthAdjust="spacing" textLength="211" x="160.5" y="1123.6889">Polymorph(const Polymorph&amp;)</text><ellipse cx="151.5" cy="1136.6391" fill="#84BE84" rx="3" ry="3" style="stroke:#038048;stroke-width:1.0;"/><text fill="#000000" font-family="sans-serif" font-size="14" lengthAdjust="spacing" textLength="209" x="160.5" y="1139.9857">operator=(const Polymorph&amp;)</text><ellipse cx="151.5" cy="1152.9359" fill="#84BE84" rx="3" ry="3" style="stroke:#038048;stroke-width:1.0;"/><text fill="#000000" font-family="sans-serif" font-size="14" lengthAdjust="spacing" textLength="139" x="160.5" y="1156.2826">virtual ~Polymorph()</text><ellipse cx="151.5" cy="1169.2328" fill="#84BE84" rx="3" ry="3" style="stroke:#038048;stroke-width:1.0;"/><text fill="#000000" font-family="sans-serif" font-size="14" lengthAdjust="spacing" textLength="197" x="160.5" y="1172.5795">virtual clone() const : ASpell*</text></g><!--class Fwoosh--><g id="elem_Fwoosh"><rect codeLine="39" fill="#F1F1F1" height="145.7813" id="Fwoosh" rx="2.5" ry="2.5" style="stroke:#181818;stroke-width:0.5;" width="223" x="412.5" y="1034.1"/><ellipse cx="492.75" cy="1050.1" fill="#FF7700" rx="11" ry="11" style="stroke:#181818;stroke-width:1.0;"/><path d="M488.6719,1045.8656 L488.6719,1043.7094 L496.0625,1043.7094 L496.0625,1045.8656 L493.5938,1045.8656 L493.5938,1053.9438 L496.0625,1053.9438 L496.0625,1056.1 L488.6719,1056.1 L488.6719,1053.9438 L491.1406,1053.9438 L491.1406,1045.8656 L488.6719,1045.8656 Z " fill="#000000"/><text fill="#000000" font-family="sans-serif" font-size="14" lengthAdjust="spacing" textLength="54" x="513.25" y="1054.9467">Fwoosh</text><line style="stroke:#181818;stroke-width:0.5;" x1="413.5" x2="634.5" y1="1066.1" y2="1066.1"/><line style="stroke:#181818;stroke-width:0.5;" x1="413.5" x2="634.5" y1="1074.1" y2="1074.1"/><ellipse cx="423.5" cy="1087.7484" fill="#84BE84" rx="3" ry="3" style="stroke:#038048;stroke-width:1.0;"/><text fill="#000000" font-family="sans-serif" font-size="14" lengthAdjust="spacing" textLength="64" x="432.5" y="1091.0951">Fwoosh()</text><ellipse cx="423.5" cy="1104.0453" fill="#84BE84" rx="3" ry="3" style="stroke:#038048;stroke-width:1.0;"/><text fill="#000000" font-family="sans-serif" font-size="14" lengthAdjust="spacing" textLength="150" x="432.5" y="1107.392">Fwoosh(string, string)</text><ellipse cx="423.5" cy="1120.3422" fill="#84BE84" rx="3" ry="3" style="stroke:#038048;stroke-width:1.0;"/><text fill="#000000" font-family="sans-serif" font-size="14" lengthAdjust="spacing" textLength="173" x="432.5" y="1123.6889">Fwoosh(const Fwoosh&amp;)</text><ellipse cx="423.5" cy="1136.6391" fill="#84BE84" rx="3" ry="3" style="stroke:#038048;stroke-width:1.0;"/><text fill="#000000" font-family="sans-serif" font-size="14" lengthAdjust="spacing" textLength="190" x="432.5" y="1139.9857">operator=(const Fwoosh&amp;)</text><ellipse cx="423.5" cy="1152.9359" fill="#84BE84" rx="3" ry="3" style="stroke:#038048;stroke-width:1.0;"/><text fill="#000000" font-family="sans-serif" font-size="14" lengthAdjust="spacing" textLength="120" x="432.5" y="1156.2826">virtual ~Fwoosh()</text><ellipse cx="423.5" cy="1169.2328" fill="#84BE84" rx="3" ry="3" style="stroke:#038048;stroke-width:1.0;"/><text fill="#000000" font-family="sans-serif" font-size="14" lengthAdjust="spacing" textLength="197" x="432.5" y="1172.5795">virtual clone() const : ASpell*</text></g><!--class Fireball--><g id="elem_Fireball"><rect codeLine="48" fill="#F1F1F1" height="145.7813" id="Fireball" rx="2.5" ry="2.5" style="stroke:#181818;stroke-width:0.5;" width="223" x="670.5" y="1034.1"/><ellipse cx="753.75" cy="1050.1" fill="#FF7700" rx="11" ry="11" style="stroke:#181818;stroke-width:1.0;"/><path d="M749.6719,1045.8656 L749.6719,1043.7094 L757.0625,1043.7094 L757.0625,1045.8656 L754.5938,1045.8656 L754.5938,1053.9438 L757.0625,1053.9438 L757.0625,1056.1 L749.6719,1056.1 L749.6719,1053.9438 L752.1406,1053.9438 L752.1406,1045.8656 L749.6719,1045.8656 Z " fill="#000000"/><text fill="#000000" font-family="sans-serif" font-size="14" lengthAdjust="spacing" textLength="48" x="774.25" y="1054.9467">Fireball</text><line style="stroke:#181818;stroke-width:0.5;" x1="671.5" x2="892.5" y1="1066.1" y2="1066.1"/><line style="stroke:#181818;stroke-width:0.5;" x1="671.5" x2="892.5" y1="1074.1" y2="1074.1"/><ellipse cx="681.5" cy="1087.7484" fill="#84BE84" rx="3" ry="3" style="stroke:#038048;stroke-width:1.0;"/><text fill="#000000" font-family="sans-serif" font-size="14" lengthAdjust="spacing" textLength="58" x="690.5" y="1091.0951">Fireball()</text><ellipse cx="681.5" cy="1104.0453" fill="#84BE84" rx="3" ry="3" style="stroke:#038048;stroke-width:1.0;"/><text fill="#000000" font-family="sans-serif" font-size="14" lengthAdjust="spacing" textLength="144" x="690.5" y="1107.392">Fireball(string, string)</text><ellipse cx="681.5" cy="1120.3422" fill="#84BE84" rx="3" ry="3" style="stroke:#038048;stroke-width:1.0;"/><text fill="#000000" font-family="sans-serif" font-size="14" lengthAdjust="spacing" textLength="161" x="690.5" y="1123.6889">Fireball(const Fireball&amp;)</text><ellipse cx="681.5" cy="1136.6391" fill="#84BE84" rx="3" ry="3" style="stroke:#038048;stroke-width:1.0;"/><text fill="#000000" font-family="sans-serif" font-size="14" lengthAdjust="spacing" textLength="184" x="690.5" y="1139.9857">operator=(const Fireball&amp;)</text><ellipse cx="681.5" cy="1152.9359" fill="#84BE84" rx="3" ry="3" style="stroke:#038048;stroke-width:1.0;"/><text fill="#000000" font-family="sans-serif" font-size="14" lengthAdjust="spacing" textLength="114" x="690.5" y="1156.2826">virtual ~Fireball()</text><ellipse cx="681.5" cy="1169.2328" fill="#84BE84" rx="3" ry="3" style="stroke:#038048;stroke-width:1.0;"/><text fill="#000000" font-family="sans-serif" font-size="14" lengthAdjust="spacing" textLength="197" x="690.5" y="1172.5795">virtual clone() const : ASpell*</text></g><!--class ATarget--><g id="elem_ATarget"><rect fill="#F1F1F1" height="48" id="ATarget" rx="2.5" ry="2.5" style="stroke:#181818;stroke-width:0.5;" width="86" x="928" y="1082.99"/><ellipse cx="943" cy="1098.99" fill="#ADD1B2" rx="11" ry="11" style="stroke:#181818;stroke-width:1.0;"/><path d="M945.9688,1104.6306 Q945.3906,1104.9275 944.75,1105.0681 Q944.1094,1105.2244 943.4063,1105.2244 Q940.9063,1105.2244 939.5781,1103.5838 Q938.2656,1101.9275 938.2656,1098.8025 Q938.2656,1095.6775 939.5781,1094.0213 Q940.9063,1092.365 943.4063,1092.365 Q944.1094,1092.365 944.75,1092.5213 Q945.4063,1092.6775 945.9688,1092.9744 L945.9688,1095.6931 Q945.3438,1095.115 944.75,1094.8494 Q944.1563,1094.5681 943.5313,1094.5681 Q942.1875,1094.5681 941.5,1095.6463 Q940.8125,1096.7088 940.8125,1098.8025 Q940.8125,1100.8963 941.5,1101.9744 Q942.1875,1103.0369 943.5313,1103.0369 Q944.1563,1103.0369 944.75,1102.7713 Q945.3438,1102.49 945.9688,1101.9119 L945.9688,1104.6306 Z " fill="#000000"/><text fill="#000000" font-family="sans-serif" font-size="14" lengthAdjust="spacing" textLength="54" x="957" y="1103.8367">ATarget</text><line style="stroke:#181818;stroke-width:0.5;" x1="929" x2="1013" y1="1114.99" y2="1114.99"/><line style="stroke:#181818;stroke-width:0.5;" x1="929" x2="1013" y1="1122.99" y2="1122.99"/></g><!--class ATarget--><g id="elem_ATarget"><rect codeLine="65" fill="#F1F1F1" height="194.6719" id="ATarget" rx="2.5" ry="2.5" style="stroke:#181818;stroke-width:0.5;" width="303" x="1077.5" y="388.27"/><ellipse cx="1197.75" cy="404.27" fill="#ADD8E6" rx="11" ry="11" style="stroke:#181818;stroke-width:1.0;"/><path d="M1197.8594,399.6138 L1196.7031,404.6919 L1199.0313,404.6919 L1197.8594,399.6138 Z M1196.375,397.3794 L1199.3594,397.3794 L1202.7188,409.77 L1200.2656,409.77 L1199.5,406.7075 L1196.2188,406.7075 L1195.4688,409.77 L1193.0313,409.77 L1196.375,397.3794 Z " fill="#000000"/><text fill="#000000" font-family="sans-serif" font-size="14" lengthAdjust="spacing" textLength="54" x="1218.25" y="409.1167">ATarget</text><line style="stroke:#181818;stroke-width:0.5;" x1="1078.5" x2="1379.5" y1="420.27" y2="420.27"/><rect fill="none" height="6" style="stroke:#C82930;stroke-width:1.0;" width="6" x="1085.5" y="430.9184"/><text fill="#000000" font-family="sans-serif" font-size="14" lengthAdjust="spacing" textLength="89" x="1097.5" y="437.2651">_type : string</text><line style="stroke:#181818;stroke-width:0.5;" x1="1078.5" x2="1379.5" y1="444.5669" y2="444.5669"/><ellipse cx="1088.5" cy="458.2153" fill="#84BE84" rx="3" ry="3" style="stroke:#038048;stroke-width:1.0;"/><text fill="#000000" font-family="sans-serif" font-size="14" lengthAdjust="spacing" textLength="64" x="1097.5" y="461.562">ATarget()</text><ellipse cx="1088.5" cy="474.5122" fill="#84BE84" rx="3" ry="3" style="stroke:#038048;stroke-width:1.0;"/><text fill="#000000" font-family="sans-serif" font-size="14" lengthAdjust="spacing" textLength="103" x="1097.5" y="477.8589">ATarget(string)</text><ellipse cx="1088.5" cy="490.8091" fill="#84BE84" rx="3" ry="3" style="stroke:#038048;stroke-width:1.0;"/><text fill="#000000" font-family="sans-serif" font-size="14" lengthAdjust="spacing" textLength="173" x="1097.5" y="494.1557">ATarget(const ATarget&amp;)</text><ellipse cx="1088.5" cy="507.1059" fill="#84BE84" rx="3" ry="3" style="stroke:#038048;stroke-width:1.0;"/><text fill="#000000" font-family="sans-serif" font-size="14" lengthAdjust="spacing" textLength="190" x="1097.5" y="510.4526">operator=(const ATarget&amp;)</text><ellipse cx="1088.5" cy="523.4028" fill="#84BE84" rx="3" ry="3" style="stroke:#038048;stroke-width:1.0;"/><text fill="#000000" font-family="sans-serif" font-size="14" lengthAdjust="spacing" textLength="120" x="1097.5" y="526.7495">virtual ~ATarget()</text><ellipse cx="1088.5" cy="539.6997" fill="#84BE84" rx="3" ry="3" style="stroke:#038048;stroke-width:1.0;"/><text fill="#000000" font-family="sans-serif" font-size="14" lengthAdjust="spacing" textLength="217" x="1097.5" y="543.0464">getType() const : const string&amp;</text><ellipse cx="1088.5" cy="555.9966" fill="#84BE84" rx="3" ry="3" style="stroke:#038048;stroke-width:1.0;"/><text fill="#000000" font-family="sans-serif" font-size="14" lengthAdjust="spacing" textLength="238" x="1097.5" y="559.3432">virtual clone() const : ATarget* = 0</text><ellipse cx="1088.5" cy="572.2934" fill="#84BE84" rx="3" ry="3" style="stroke:#038048;stroke-width:1.0;"/><text fill="#000000" font-family="sans-serif" font-size="14" lengthAdjust="spacing" textLength="277" x="1097.5" y="575.6401">getHitBySpell(const ASpell&amp; spell) const</text></g><!--class TargetGenerator--><g id="elem_TargetGenerator"><rect codeLine="77" fill="#F1F1F1" height="178.375" id="TargetGenerator" rx="2.5" ry="2.5" style="stroke:#181818;stroke-width:0.5;" width="336" x="1070" y="84"/><ellipse cx="1176.25" cy="100" fill="#ADD1B2" rx="11" ry="11" style="stroke:#181818;stroke-width:1.0;"/><path d="M1179.2188,105.6406 Q1178.6406,105.9375 1178,106.0781 Q1177.3594,106.2344 1176.6563,106.2344 Q1174.1563,106.2344 1172.8281,104.5938 Q1171.5156,102.9375 1171.5156,99.8125 Q1171.5156,96.6875 1172.8281,95.0313 Q1174.1563,93.375 1176.6563,93.375 Q1177.3594,93.375 1178,93.5313 Q1178.6563,93.6875 1179.2188,93.9844 L1179.2188,96.7031 Q1178.5938,96.125 1178,95.8594 Q1177.4063,95.5781 1176.7813,95.5781 Q1175.4375,95.5781 1174.75,96.6563 Q1174.0625,97.7188 1174.0625,99.8125 Q1174.0625,101.9063 1174.75,102.9844 Q1175.4375,104.0469 1176.7813,104.0469 Q1177.4063,104.0469 1178,103.7813 Q1178.5938,103.5 1179.2188,102.9219 L1179.2188,105.6406 Z " fill="#000000"/><text fill="#000000" font-family="sans-serif" font-size="14" lengthAdjust="spacing" textLength="115" x="1196.75" y="104.8467">TargetGenerator</text><line style="stroke:#181818;stroke-width:0.5;" x1="1071" x2="1405" y1="116" y2="116"/><rect fill="none" height="6" style="stroke:#C82930;stroke-width:1.0;" width="6" x="1078" y="126.6484"/><text fill="#000000" font-family="sans-serif" font-size="14" lengthAdjust="spacing" textLength="167" x="1090" y="132.9951">_list : vector&lt;ATarget*&gt;</text><line style="stroke:#181818;stroke-width:0.5;" x1="1071" x2="1405" y1="140.2969" y2="140.2969"/><ellipse cx="1081" cy="153.9453" fill="#84BE84" rx="3" ry="3" style="stroke:#038048;stroke-width:1.0;"/><text fill="#000000" font-family="sans-serif" font-size="14" lengthAdjust="spacing" textLength="125" x="1090" y="157.292">TargetGenerator()</text><rect fill="#F24D5C" height="6" style="stroke:#C82930;stroke-width:1.0;" width="6" x="1078" y="167.2422"/><text fill="#000000" font-family="sans-serif" font-size="14" lengthAdjust="spacing" textLength="295" x="1090" y="173.5889">TargetGenerator(const TargetGenerator&amp;)</text><rect fill="#F24D5C" height="6" style="stroke:#C82930;stroke-width:1.0;" width="6" x="1078" y="183.5391"/><text fill="#000000" font-family="sans-serif" font-size="14" lengthAdjust="spacing" textLength="251" x="1090" y="189.8857">operator=(const TargetGenerator&amp;)</text><ellipse cx="1081" cy="202.8359" fill="#84BE84" rx="3" ry="3" style="stroke:#038048;stroke-width:1.0;"/><text fill="#000000" font-family="sans-serif" font-size="14" lengthAdjust="spacing" textLength="137" x="1090" y="206.1826">~TargetGenerator()</text><ellipse cx="1081" cy="219.1328" fill="#84BE84" rx="3" ry="3" style="stroke:#038048;stroke-width:1.0;"/><text fill="#000000" font-family="sans-serif" font-size="14" lengthAdjust="spacing" textLength="184" x="1090" y="222.4795">learnTargetType(ATarget*)</text><ellipse cx="1081" cy="235.4297" fill="#84BE84" rx="3" ry="3" style="stroke:#038048;stroke-width:1.0;"/><text fill="#000000" font-family="sans-serif" font-size="14" lengthAdjust="spacing" textLength="267" x="1090" y="238.7764">forgetTargetType(const string&amp; name)</text><ellipse cx="1081" cy="251.7266" fill="#84BE84" rx="3" ry="3" style="stroke:#038048;stroke-width:1.0;"/><text fill="#000000" font-family="sans-serif" font-size="14" lengthAdjust="spacing" textLength="310" x="1090" y="255.0732">createTarget(const string&amp; name) : ATarget*</text></g><!--class Dummy--><g id="elem_Dummy"><rect codeLine="88" fill="#F1F1F1" height="145.7813" id="Dummy" rx="2.5" ry="2.5" style="stroke:#181818;stroke-width:0.5;" width="235" x="1070.5" y="770.58"/><ellipse cx="1157.25" cy="786.58" fill="#FF7700" rx="11" ry="11" style="stroke:#181818;stroke-width:1.0;"/><path d="M1153.1719,782.3456 L1153.1719,780.1894 L1160.5625,780.1894 L1160.5625,782.3456 L1158.0938,782.3456 L1158.0938,790.4238 L1160.5625,790.4238 L1160.5625,792.58 L1153.1719,792.58 L1153.1719,790.4238 L1155.6406,790.4238 L1155.6406,782.3456 L1153.1719,782.3456 Z " fill="#000000"/><text fill="#000000" font-family="sans-serif" font-size="14" lengthAdjust="spacing" textLength="53" x="1177.75" y="791.4267">Dummy</text><line style="stroke:#181818;stroke-width:0.5;" x1="1071.5" x2="1304.5" y1="802.58" y2="802.58"/><line style="stroke:#181818;stroke-width:0.5;" x1="1071.5" x2="1304.5" y1="810.58" y2="810.58"/><ellipse cx="1081.5" cy="824.2284" fill="#84BE84" rx="3" ry="3" style="stroke:#038048;stroke-width:1.0;"/><text fill="#000000" font-family="sans-serif" font-size="14" lengthAdjust="spacing" textLength="63" x="1090.5" y="827.5751">Dummy()</text><ellipse cx="1081.5" cy="840.5253" fill="#84BE84" rx="3" ry="3" style="stroke:#038048;stroke-width:1.0;"/><text fill="#000000" font-family="sans-serif" font-size="14" lengthAdjust="spacing" textLength="102" x="1090.5" y="843.872">Dummy(string)</text><ellipse cx="1081.5" cy="856.8222" fill="#84BE84" rx="3" ry="3" style="stroke:#038048;stroke-width:1.0;"/><text fill="#000000" font-family="sans-serif" font-size="14" lengthAdjust="spacing" textLength="171" x="1090.5" y="860.1689">Dummy(const Dummy&amp;)</text><ellipse cx="1081.5" cy="873.1191" fill="#84BE84" rx="3" ry="3" style="stroke:#038048;stroke-width:1.0;"/><text fill="#000000" font-family="sans-serif" font-size="14" lengthAdjust="spacing" textLength="189" x="1090.5" y="876.4657">operator=(const Dummy&amp;)</text><ellipse cx="1081.5" cy="889.4159" fill="#84BE84" rx="3" ry="3" style="stroke:#038048;stroke-width:1.0;"/><text fill="#000000" font-family="sans-serif" font-size="14" lengthAdjust="spacing" textLength="119" x="1090.5" y="892.7626">virtual ~Dummy()</text><ellipse cx="1081.5" cy="905.7128" fill="#84BE84" rx="3" ry="3" style="stroke:#038048;stroke-width:1.0;"/><text fill="#000000" font-family="sans-serif" font-size="14" lengthAdjust="spacing" textLength="209" x="1090.5" y="909.0595">virtual clone() const : ATarget*</text></g><!--class BrickWall--><g id="elem_BrickWall"><rect codeLine="97" fill="#F1F1F1" height="145.7813" id="BrickWall" rx="2.5" ry="2.5" style="stroke:#181818;stroke-width:0.5;" width="235" x="1340.5" y="770.58"/><ellipse cx="1423.25" cy="786.58" fill="#FF7700" rx="11" ry="11" style="stroke:#181818;stroke-width:1.0;"/><path d="M1419.1719,782.3456 L1419.1719,780.1894 L1426.5625,780.1894 L1426.5625,782.3456 L1424.0938,782.3456 L1424.0938,790.4238 L1426.5625,790.4238 L1426.5625,792.58 L1419.1719,792.58 L1419.1719,790.4238 L1421.6406,790.4238 L1421.6406,782.3456 L1419.1719,782.3456 Z " fill="#000000"/><text fill="#000000" font-family="sans-serif" font-size="14" lengthAdjust="spacing" textLength="61" x="1443.75" y="791.4267">BrickWall</text><line style="stroke:#181818;stroke-width:0.5;" x1="1341.5" x2="1574.5" y1="802.58" y2="802.58"/><line style="stroke:#181818;stroke-width:0.5;" x1="1341.5" x2="1574.5" y1="810.58" y2="810.58"/><ellipse cx="1351.5" cy="824.2284" fill="#84BE84" rx="3" ry="3" style="stroke:#038048;stroke-width:1.0;"/><text fill="#000000" font-family="sans-serif" font-size="14" lengthAdjust="spacing" textLength="71" x="1360.5" y="827.5751">BrickWall()</text><ellipse cx="1351.5" cy="840.5253" fill="#84BE84" rx="3" ry="3" style="stroke:#038048;stroke-width:1.0;"/><text fill="#000000" font-family="sans-serif" font-size="14" lengthAdjust="spacing" textLength="110" x="1360.5" y="843.872">BrickWall(string)</text><ellipse cx="1351.5" cy="856.8222" fill="#84BE84" rx="3" ry="3" style="stroke:#038048;stroke-width:1.0;"/><text fill="#000000" font-family="sans-serif" font-size="14" lengthAdjust="spacing" textLength="187" x="1360.5" y="860.1689">BrickWall(const BrickWall&amp;)</text><ellipse cx="1351.5" cy="873.1191" fill="#84BE84" rx="3" ry="3" style="stroke:#038048;stroke-width:1.0;"/><text fill="#000000" font-family="sans-serif" font-size="14" lengthAdjust="spacing" textLength="197" x="1360.5" y="876.4657">operator=(const BrickWall&amp;)</text><ellipse cx="1351.5" cy="889.4159" fill="#84BE84" rx="3" ry="3" style="stroke:#038048;stroke-width:1.0;"/><text fill="#000000" font-family="sans-serif" font-size="14" lengthAdjust="spacing" textLength="127" x="1360.5" y="892.7626">virtual ~BrickWall()</text><ellipse cx="1351.5" cy="905.7128" fill="#84BE84" rx="3" ry="3" style="stroke:#038048;stroke-width:1.0;"/><text fill="#000000" font-family="sans-serif" font-size="14" lengthAdjust="spacing" textLength="209" x="1360.5" y="909.0595">virtual clone() const : ATarget*</text></g><!--reverse link ASpell to Polymorph--><g id="link_ASpell_Polymorph"><path codeLine="57" d="M626.0258,919.5379 C552.2258,955.3479 476.51,992.6 395,1034.1 C389.41,1036.95 383.69,1039.88 377.93,1042.85 " fill="none" id="ASpell-backto-Polymorph" style="stroke:#181818;stroke-width:1.0;"/><polygon fill="none" points="642.22,911.68,623.4065,914.1399,628.6451,924.936,642.22,911.68" style="stroke:#181818;stroke-width:1.0;"/></g><!--reverse link ASpell to Fwoosh--><g id="link_ASpell_Fwoosh"><path codeLine="58" d="M658.0687,970.0839 C632.4287,996.0739 618.48,1010.22 595.09,1033.92 " fill="none" id="ASpell-backto-Fwoosh" style="stroke:#181818;stroke-width:1.0;"/><polygon fill="none" points="670.71,957.27,653.7973,965.8701,662.34,974.2977,670.71,957.27" style="stroke:#181818;stroke-width:1.0;"/></g><!--reverse link ASpell to Fireball--><g id="link_ASpell_Fireball"><path codeLine="59" d="M782,975.27 C782,1001.26 782,1010.22 782,1033.92 " fill="none" id="ASpell-backto-Fireball" style="stroke:#181818;stroke-width:1.0;"/><polygon fill="none" points="782,957.27,776,975.27,788,975.27,782,957.27" style="stroke:#181818;stroke-width:1.0;"/></g><!--reverse link ASpell to ATarget--><g id="link_ASpell_ATarget"><path codeLine="60" d="M819.8752,968.1934 C828.2052,985.1734 833.25,990.68 846,1004.1 C867.92,1027.16 885.75,1014.75 911,1034.1 C928.68,1047.65 944.62,1067.28 955.62,1082.61 " fill="none" id="ASpell-backto-ATarget" style="stroke:#181818;stroke-width:1.0;"/><polygon fill="none" points="814.59,957.42,813.6415,964.5684,819.8752,968.1934,820.8237,961.045,814.59,957.42" style="stroke:#181818;stroke-width:1.0;"/><polygon fill="#000000" points="854.8231,998.8888,849.8011,990.8123,846.013,995.3066,854.8231,998.8888" style="stroke:#000000;stroke-width:1.0;"/><text fill="#000000" font-family="sans-serif" font-size="13" lengthAdjust="spacing" textLength="44" x="860" y="1000.1669">Affects</text></g><!--link ASpell to ATarget--><g id="link_ASpell_ATarget"><path codeLine="61" d="M886.83,957.26 C894.63,967.12 902.13,977.14 909,987.1 C930.55,1018.33 947.3224,1052.5209 958.4624,1077.2109 " fill="none" id="ASpell-to-ATarget" style="stroke:#181818;stroke-width:1.0;"/><polygon fill="#181818" points="960.93,1082.68,960.8746,1072.8313,958.8736,1078.1224,953.5825,1076.1215,960.93,1082.68" style="stroke:#181818;stroke-width:1.0;"/><polygon fill="#000000" points="925.5636,999.9592,923.4493,990.6866,918.4028,993.7003,925.5636,999.9592" style="stroke:#000000;stroke-width:1.0;"/><text fill="#000000" font-family="sans-serif" font-size="13" lengthAdjust="spacing" textLength="42" x="932" y="1000.1669">launch</text></g><!--reverse link ATarget to Dummy--><g id="link_ATarget_Dummy"><path codeLine="106" d="M1215.7907,601.2618 C1209.0007,660.2218 1202.52,716.44 1196.32,770.28 " fill="none" id="ATarget-backto-Dummy" style="stroke:#181818;stroke-width:1.0;"/><polygon fill="none" points="1217.85,583.38,1209.8301,600.5754,1221.7513,601.9483,1217.85,583.38" style="stroke:#181818;stroke-width:1.0;"/></g><!--reverse link ATarget to BrickWall--><g id="link_ATarget_BrickWall"><path codeLine="107" d="M1301.0122,598.5157 C1338.9622,657.4757 1376.9,716.44 1411.55,770.28 " fill="none" id="ATarget-backto-BrickWall" style="stroke:#181818;stroke-width:1.0;"/><polygon fill="none" points="1291.27,583.38,1295.967,601.7631,1306.0574,595.2683,1291.27,583.38" style="stroke:#181818;stroke-width:1.0;"/></g><!--reverse link TargetGenerator to ATarget--><g id="link_TargetGenerator_ATarget"><path codeLine="108" d="M1235.083,274.725 C1233.953,313.785 1232.97,347.82 1231.81,387.79 " fill="none" id="TargetGenerator-backto-ATarget" style="stroke:#181818;stroke-width:1.0;"/><polygon fill="none" points="1235.43,262.73,1231.2582,268.6118,1235.083,274.725,1239.2548,268.8432,1235.43,262.73" style="stroke:#181818;stroke-width:1.0;"/><polygon fill="#000000" points="1238.8553,305.9443,1242.0547,296.9881,1236.1794,296.818,1238.8553,305.9443" style="stroke:#000000;stroke-width:1.0;"/><text fill="#000000" font-family="sans-serif" font-size="13" lengthAdjust="spacing" textLength="67" x="1248" y="305.4469">Generates</text></g><!--link ATarget to ASpell--><g id="link_ATarget_ASpell"><path codeLine="109" d="M1129.38,583.44 C1111.31,599.99 1092.36,616.71 1074,631.83 C1025.87,671.47 975.7998,708.7229 926.6498,743.6729 " fill="none" id="ATarget-to-ASpell" style="stroke:#181818;stroke-width:1.0;"/><polygon fill="#181818" points="921.76,747.15,931.4127,745.1943,925.8348,744.2524,926.7766,738.6745,921.76,747.15" style="stroke:#181818;stroke-width:1.0;"/><polygon fill="#000000" points="1036.0773,673.4968,1044.9959,670.1938,1041.3512,665.5824,1036.0773,673.4968" style="stroke:#000000;stroke-width:1.0;"/><text fill="#000000" font-family="sans-serif" font-size="13" lengthAdjust="spacing" textLength="86" x="1049" y="674.8969">getHitBySpell</text></g><!--reverse link Warlock to SpellBook--><g id="link_Warlock_SpellBook"><path codeLine="130" d="M376,644.12 C376,685.41 376,717.12 376,753.93 " fill="none" id="Warlock-backto-SpellBook" style="stroke:#181818;stroke-width:1.0;"/><polygon fill="none" points="376,632.12,372,638.12,376,644.12,380,638.12,376,632.12" style="stroke:#181818;stroke-width:1.0;"/><polygon fill="#000000" points="381,675.3964,383.9389,666.3513,378.0611,666.3513,381,675.3964" style="stroke:#000000;stroke-width:1.0;"/><text fill="#000000" font-family="sans-serif" font-size="13" lengthAdjust="spacing" textLength="32" x="390" y="674.8969">Uses</text></g><!--link Warlock to ASpell--><g id="link_Warlock_ASpell"><path codeLine="131" d="M519.43,612.32 C563.01,650.52 606.1082,688.2948 648.6682,725.6048 " fill="none" id="Warlock-to-ASpell" style="stroke:#181818;stroke-width:1.0;"/><polygon fill="#181818" points="653.18,729.56,649.0491,720.6193,649.4202,726.264,643.7755,726.635,653.18,729.56" style="stroke:#181818;stroke-width:1.0;"/><polygon fill="#000000" points="599.76,673.6922,594.8954,665.52,591.0209,669.9401,599.76,673.6922" style="stroke:#000000;stroke-width:1.0;"/><text fill="#000000" font-family="sans-serif" font-size="13" lengthAdjust="spacing" textLength="144" x="605" y="674.8969">learnSpell, launchSpell</text></g><!--link Warlock to ATarget--><g id="link_Warlock_ATarget"><path codeLine="132" d="M232.63,579.02 C193.39,609.62 153.58,646.34 124,686.83 C93.75,728.25 78.4199,781.2015 71.0499,813.3715 " fill="none" id="Warlock-to-ATarget" style="stroke:#181818;stroke-width:1.0;"/><polygon fill="#181818" points="69.71,819.22,75.6188,811.3405,70.8266,814.3463,67.8208,809.554,69.71,819.22" style="stroke:#181818;stroke-width:1.0;"/><polygon fill="#000000" points="143.1618,674.5128,150.7157,668.7344,145.8766,665.3979,143.1618,674.5128" style="stroke:#000000;stroke-width:1.0;"/><text fill="#000000" font-family="sans-serif" font-size="13" lengthAdjust="spacing" textLength="73" x="155" y="674.8969">launchSpell</text></g><!--SRC=[bLPDRzim3BtdLmWT4AHp3EIq3a4Re46JTPTXs3hqEAYksXfLh41sEWHR-zidYzItbQ2v92IV-KYAUTQMLi_qaP6JQqRlcIJhchFsXFmTZGZPcjZFBUES_62STkp-X7oulBhwlFgaG4HzAaxRbbm2vloSJ2wd1d5A5Wj44LB-RkY6aJbfEratZzRB7XvOrRLne82CazF81j0KmN6q4atROJ5Z6nHR9cadv4Kc_bBBRaSvUOiv7rdtJHKzEINmO5oZYg-W_2p4vAwuQFn4GFMHN92PWNAwQwedK-CDbIhzc7Jw6n_KqDUHDtYTPYd4ipTeNckA5rMOaEV8j30qzWdRP-bSG6vjEwCodc4AATxIp0LdL3OmLQp3XXv4tvX_RZ2vCUaNnS8goTJQPM5kbEbilWk-tmYvVT9x-LNjvNfzTZQR1NjPM9Ihshaow-O0K9Aryqit0B5xDr32aRr9crt_4Q8zt2b070VQcHun2iHWvBkBuxQrcFFzVTMItL7Kbcnd2F9wCvvSToQEzQDveCC4uNfCsD_HfL7EVsNfTYI9m1XJDpBx0Q7yg1uz8yhhmeUKvSA3WEven6kW-uXmmhzMdzKi57u47LJ-RhzbgS33avx2eoEMTdI7kfWNznZWr3qcLCQDgimxdq1WZXucv0iqNDdNTRVS3xoEIDj_POKSadrX3RIJbtDajNeUFUXKFGv0DP4th_0vOF6MOmIrXwWUhAarqdmFSLJuWyDFb1_pfzEyscqs-uEIeH6kT32ZrGCdSElV-RMBmdRf8ffZkvHsifHrzNnxJ00job4vLzIL2m2xjVFT3K1iXmFKx-dI2aYlPtfQgTjIw53yJma53_tCIXv6jEQ1_Cr9y3TroWSJlwMIYyfSg8RkhKhHweudphl-6ZPtLoFjBZ0TdWBCOcpUHsZ2v4e3ZKmO7re66nzH67R74-OSkDAccgU5iM_mCAerg85MYhhffBZVLJR7wE1zCBWD-lkAj-BmyfyglJu-St3zGhXxyPpyQd4R323O1LVIb7XawGFH2zEWHg-Z_m00]--></g></svg>